<?xml version="1.0" encoding="utf-8"?>
<!-- Generator: Adobe Illustrator 19.2.0, SVG Export Plug-In . SVG Version: 6.00 Build 0)  -->
<svg version="1.1" id="Layer_1" xmlns="http://www.w3.org/2000/svg" xmlns:xlink="http://www.w3.org/1999/xlink" x="0px" y="0px"
	 viewBox="0 0 142 67" style="enable-background:new 0 0 142 67;" xml:space="preserve">
<style type="text/css">
	.st0{fill:#A30000;}
	.st1{fill:#CC0000;}
	.st2{fill:#FFFFFF;}
</style>
<g>
	<polygon class="st0" points="142,0 0,0 0,57 61,57 71,67 81,57 142,57 	"/>
	<polygon class="st1" points="142,0 0,0 0,57 	"/>
	<g>
		<path class="st2" d="M44.4,20.3l-1.6-3.4h-1.1v3.4h-2.7V10.2h4.5c0.6,0,1.1,0.1,1.6,0.2s0.9,0.3,1.2,0.6c0.3,0.3,0.6,0.6,0.8,1
			c0.2,0.4,0.3,0.9,0.3,1.5c0,0.8-0.2,1.4-0.5,1.9c-0.3,0.5-0.8,0.8-1.3,1.1l2,3.8L44.4,20.3L44.4,20.3z M44.3,12.8
			c-0.2-0.2-0.5-0.3-0.9-0.3h-1.7v2.2h1.7c0.5,0,0.8-0.1,1-0.3c0.2-0.2,0.3-0.5,0.3-0.8C44.5,13.3,44.4,13,44.3,12.8z"/>
		<path class="st2" d="M49.3,20.3V10.2H57v2.3h-5v1.4h3v2.3h-3V18h5.1v2.3L49.3,20.3L49.3,20.3z"/>
		<path class="st2" d="M67.5,17.6c-0.2,0.6-0.6,1.2-1,1.6c-0.5,0.4-1,0.7-1.7,0.9c-0.7,0.2-1.5,0.3-2.4,0.3h-3.3V10.2h3.5
			c0.8,0,1.5,0.1,2.1,0.2c0.6,0.2,1.2,0.4,1.6,0.8s0.8,0.9,1,1.5c0.2,0.6,0.4,1.4,0.4,2.4C67.9,16.2,67.7,17,67.5,17.6z M64.9,14.1
			c-0.1-0.3-0.2-0.6-0.4-0.8c-0.2-0.2-0.4-0.4-0.7-0.5c-0.3-0.1-0.7-0.2-1.1-0.2H62v5.3h0.6c0.4,0,0.8,0,1.1-0.1
			c0.3-0.1,0.6-0.2,0.8-0.4c0.2-0.2,0.3-0.5,0.4-0.8c0.1-0.3,0.1-0.8,0.1-1.3C65,14.8,65,14.4,64.9,14.1z"/>
		<path class="st2" d="M81,20.3v-4h-3.1v4H75V10.2h2.9v3.7H81v-3.7h2.9v10.1C83.9,20.3,81,20.3,81,20.3z"/>
		<path class="st2" d="M92.5,20.3L92,18.5h-3l-0.5,1.8h-3L89,10.2h2.8l3.7,10.1C95.5,20.3,92.5,20.3,92.5,20.3z M91.1,15.7
			c-0.1-0.3-0.2-0.6-0.2-0.8c-0.1-0.2-0.1-0.5-0.2-0.6c-0.1-0.2-0.1-0.4-0.1-0.5c0-0.2-0.1-0.3-0.1-0.5c0,0.2-0.1,0.3-0.1,0.5
			c0,0.2-0.1,0.3-0.1,0.5s-0.1,0.4-0.2,0.6c-0.1,0.2-0.1,0.5-0.2,0.8l-0.2,0.7h1.7L91.1,15.7z"/>
		<path class="st2" d="M100.7,12.7v7.6h-2.8v-7.6H95v-2.4h8.4v2.4H100.7z"/>
		<path class="st2" d="M29.9,42.8c-0.4,0.8-1,1.5-1.7,2s-1.6,0.9-2.6,1.2c-1,0.2-2.1,0.4-3.3,0.4c-1.6,0-3.2-0.2-4.7-0.7
			s-2.8-1.1-3.8-1.7l2.7-4.4c0.4,0.2,0.8,0.5,1.3,0.7c0.5,0.2,1,0.5,1.5,0.6s1.1,0.3,1.6,0.5s1,0.2,1.5,0.2c1,0,1.7-0.1,2.1-0.3
			c0.4-0.2,0.6-0.5,0.6-1c0-0.2-0.1-0.4-0.2-0.5c-0.1-0.2-0.3-0.3-0.5-0.4c-0.3-0.1-0.6-0.3-1.1-0.4c-0.4-0.1-1-0.3-1.7-0.4
			c-1.2-0.3-2.3-0.6-3.2-0.9c-0.9-0.3-1.7-0.7-2.2-1.2c-0.6-0.5-1-1.1-1.3-1.8c-0.3-0.7-0.4-1.5-0.4-2.6c0-0.9,0.2-1.8,0.6-2.6
			c0.4-0.8,0.9-1.5,1.6-2s1.5-1,2.5-1.3c1-0.3,2.1-0.5,3.3-0.5c1.7,0,3.2,0.2,4.5,0.6s2.5,1,3.5,1.7l-2.7,4.4
			c-0.9-0.6-1.8-1.1-2.7-1.4C24,30.5,23,30.3,22,30.3c-0.8,0-1.4,0.1-1.7,0.3c-0.3,0.2-0.4,0.5-0.4,0.9c0,0.2,0.1,0.4,0.2,0.5
			s0.3,0.3,0.5,0.4c0.2,0.1,0.6,0.2,1,0.4c0.4,0.1,1,0.3,1.6,0.4c1.3,0.3,2.4,0.6,3.3,1c0.9,0.4,1.7,0.8,2.3,1.3s1,1.1,1.3,1.8
			c0.3,0.7,0.4,1.5,0.4,2.4C30.6,41,30.3,42,29.9,42.8z"/>
		<path class="st2" d="M50.2,41.5c-0.5,1.1-1.1,2.1-1.9,2.8c-0.8,0.7-1.7,1.2-2.8,1.6c-1.1,0.3-2.3,0.5-3.5,0.5s-2.4-0.2-3.5-0.5
			c-1.1-0.3-2-0.8-2.8-1.6c-0.8-0.7-1.4-1.6-1.8-2.8c-0.4-1.1-0.7-2.5-0.7-4.1V25.9h5.7v11.5c0,1.2,0.3,2.2,0.8,2.9
			c0.5,0.7,1.3,1.1,2.4,1.1c1.1,0,1.9-0.4,2.4-1.1c0.5-0.7,0.7-1.7,0.7-2.9V25.9h5.7v11.5C50.9,39,50.6,40.4,50.2,41.5z"/>
		<path class="st2" d="M69.4,46v-4.8c0-1,0-1.9,0-2.8c0-0.9,0-1.7,0.1-2.5c-0.2,0.4-0.3,0.8-0.5,1.3c-0.2,0.5-0.4,0.9-0.6,1.4
			c-0.2,0.5-0.4,0.9-0.6,1.4c-0.2,0.5-0.4,0.9-0.6,1.2l-2.7,5.6l-2.7-5.6c-0.2-0.4-0.4-0.8-0.6-1.2c-0.2-0.5-0.4-0.9-0.6-1.4
			c-0.2-0.5-0.4-0.9-0.6-1.4c-0.2-0.5-0.4-0.9-0.5-1.3c0,0.8,0.1,1.6,0.1,2.5s0,1.8,0,2.8V46h-5.2V25.9h5.1l2.5,5.4
			c0.3,0.7,0.6,1.3,0.9,1.9s0.5,1.2,0.7,1.7c0.2,0.5,0.4,1,0.6,1.4c0.2,0.4,0.3,0.8,0.4,1.1c0.2-0.6,0.5-1.4,0.9-2.4
			c0.4-1,1-2.3,1.6-3.6l2.5-5.4h5.1V46C74.7,46,69.4,46,69.4,46z"/>
		<path class="st2" d="M93.4,46v-4.8c0-1,0-1.9,0-2.8c0-0.9,0-1.7,0.1-2.5c-0.2,0.4-0.3,0.8-0.5,1.3c-0.2,0.5-0.4,0.9-0.6,1.4
			c-0.2,0.5-0.4,0.9-0.6,1.4c-0.2,0.5-0.4,0.9-0.6,1.2l-2.7,5.6l-2.7-5.6c-0.2-0.4-0.4-0.8-0.6-1.2c-0.2-0.5-0.4-0.9-0.6-1.4
			c-0.2-0.5-0.4-0.9-0.6-1.4c-0.2-0.5-0.4-0.9-0.5-1.3c0,0.8,0.1,1.6,0.1,2.5s0,1.8,0,2.8V46h-5.2V25.9h5.1l2.5,5.4
			c0.3,0.7,0.6,1.3,0.9,1.9s0.5,1.2,0.7,1.7c0.2,0.5,0.4,1,0.6,1.4c0.2,0.4,0.3,0.8,0.4,1.1c0.2-0.6,0.5-1.4,0.9-2.4
			c0.4-1,1-2.3,1.6-3.6l2.5-5.4h5.1V46C98.6,46,93.4,46,93.4,46z"/>
		<path class="st2" d="M102.4,46V25.9h5.7V46H102.4z"/>
		<path class="st2" d="M122.6,30.7V46H117V30.7h-5.6v-4.9h16.9v4.9H122.6z"/>
	</g>
</g>
</svg>
