<svg xmlns="http://www.w3.org/2000/svg" version="1.1" x="0px" y="0px" viewBox="0 0 601.2 461.6" xml:space="preserve" enable-background="new 0 0 601.2 461.6"><style type="text/css">
	.st0{display:none;}
	.st1{opacity:0.8;fill:#ECAC00;}
	.st2{fill:#F2C528;}
	.st3{opacity:0.59;fill:#FFFFFF;}
	.st4{opacity:0.8;fill:#397603;}
	.st5{fill:#729F5D;}
	.st6{opacity:0.8;fill:#C61200;}
	.st7{fill:#D6504B;}
	.st8{opacity:0.2;fill:#231F20;}
	.st9{fill:#FFFFFF;}
	.st10{fill:#032B41;}
	.st11{fill:#00A6B8;}
</style><g id="Layer_1" class="st0"><image width="3104" height="1970" transform="matrix(1 0 0 1 -1004.2389 -577.0791)" style="display:inline;overflow:visible"/></g><g id="Layer_3"><g><path class="st1" d="M301.2 154.7c2.8 23-3.5 48.7-24.6 69.1s-42.5 30.5-78.5 33.6 -73.5-25.3-91-51.4 -20.3-67.8-6.8-87.5c0 0-1.1-5.3-5-1.6 -3.9 3.7-10.9 6.9-12.9-0.7 -2.1-7.6 5.5-19 9.9-21.4 4.4-2.4 9.4 2.3 10.2 9.9 0.7 7.5 2 7.1 5.9 2.5 3.8-4.6 32.8-39.5 89.5-35.8C254.6 74.9 298 128.5 301.2 154.7z"/><g><path class="st2" d="M264.7 106.7c-17.5-15.9-40.6-28.9-66.6-30.7 -33.1-2.3-56.5 9.5-70.6 20.2C178.5 109.6 234.7 108.6 264.7 106.7z"/></g><path class="st3" d="M120.3 128.4c13.8-19.7 35.1-38.7 57.3-41.3 0 0 15.3 4.8 27.4 18.6 0 0-26.3 10.4-41.3 40.1C163.7 145.8 140.6 124.1 120.3 128.4z"/></g></g><g id="Layer_4"><g><path class="st4" d="M532.7 124c0 0-30.6-27.3-70.2-23.1 -39.6 4.2-79.1 16.7-93.2 55.3s4.8 71.5 21.9 87.7 63.6 49.9 110.9 12 52.1-90.6 33.2-124.3c0 0 3.6-1.6 7.7 3.9 4.1 5.4 14.8 1.6 8-11.4 -6.8-13-9.5-11.4-12-4.1C536.5 127.2 532.7 124 532.7 124z"/><g><path class="st5" d="M522.8 121.1c-10.5-7.1-31.7-18.6-57.5-17.2 17.2 31 54.3 69.3 74.7 89.2 4.4-20 2-39.5-5.6-55.3L522.8 121.1z"/></g><path class="st3" d="M513.7 132.4c0 0-22.9-24.3-69.7-15.2 0 0 7.2 22.7-0.8 34.9 0 0 36.8-10.9 53.8-0.4C497.1 151.7 510.8 139.3 513.7 132.4z"/></g><g><path class="st6" d="M327.8 19.2c0 0-51.7 5.5-81.4 46.2s-51.7 88.5-27.4 134.7 71.3 56.4 101 54c29.8-2.3 101-17.2 105.7-94S385 34.1 337.2 23.2c0 0 1.6-4.7 10.2-3.9C356 20 361.5 6.7 343.5 2c-18-4.7-18.8-0.8-14.1 7.8S327.8 19.2 327.8 19.2z"/><g><path class="st7" d="M316.7 26.1c-15.6 3.8-44.5 14-65.1 39.4 43.8 10.2 111.3 8 147.4 5.8C384 50 363.6 35.7 342.3 29.3L316.7 26.1z"/></g><path class="st3" d="M319.6 44.2c0 0-42.3 0.8-73.6 52.5 0 0 27.4 12.5 32.1 30.5 0 0 21.1-43.9 45.4-50.9C323.5 76.3 323.5 52.9 319.6 44.2z"/></g></g><g id="Layer_2"><path class="st8" d="M589.2 239.2l-2.2-1 1.8-3.9 7.2-15.4 -15.4-7.2c-5.9-2.8-15.7-5.8-23.3-5.8 -0.5 0-1 0-1.5 0l-8.4 0.5 -4.7 7 -3.6 5.4c-0.4 0-0.9 0.1-1.3 0.1l-5.1 0.5 -3.9 3.2c-0.6-1.3-1.2-2.5-2-3.7 -5.2-8.5-13.9-14.7-26.5-18.9 -9.3-3.1-21.7-5.4-29.4-5.4 -0.6 0-1.1 0-1.6 0l-6.5 0.3 -1.1 1.1 2.1-6.2c1.9-5.6 3-12.3 3.1-18l0.1-14.7 -14.6-2.2 -39.8-6 -8.7-1.3v0l-13.8-2.1 -39.8-6 -14-2.1 -4.6 13.3c-2.3 6.5-2.6 12.8-2.7 18.1l-0.1 10.8 7.1 3.5 -6.3 42.3 -5.6 1.3 -3.7 5.8c-3.2 5-5.9 13.3-6.9 17.3l-4.2 17.9 18.2 2.7 44.1 6.6 0.1 0 0 0 18.2 2.7 44 6.6 5.1 0.8c4.3 4.6 9.7 8.1 15.9 10.1 5.1 1.7 10.2 2.6 14.9 2.6 1.1 0 2.2 0 3.3-0.1 0.4 0.5 0.8 0.9 1.2 1.4 -0.1 0-0.1 0-0.2 0 -1.4 0-2.7 0.1-3.9 0.2l-5.4 0.6 -4.1 3.6c-5.1 4.5-9.8 12.4-11.9 17.8l-2.3 6.1c-7-3.9-14.8-6.7-23.1-8.3 -3.9-0.7-7.7-1.1-11.4-1.1 -13.4 0-24.7 5.1-31.8 13.8 -1.8-4.3-4.4-8.1-7.8-11.4 -7.2-6.9-17.2-10.7-30.5-11.6 -2-0.1-4.1-0.2-6.4-0.2 -7.5 0-18 0.8-25 2.9l-6.2 1.9 -1.4 2.2 -0.9-22.4 -0.4-11.4 -10.7-3.9c-5.2-1.9-11.8-2.2-15.3-2.2 -0.7 0-1.5 0-2.2 0 -8.4 0.3-16.9 2.3-22.7 5.2l-4.8 2.5 -2.5 4.8c-3.2 6.1-4.8 15.1-4.8 20.9l0 7.5c-5.4-2.5-11.4-3.8-17.6-3.8 -2.2 0-4.4 0.2-6.6 0.5 -4.5 0.7-10.6 2.3-16.5 6.2 -2.3-0.5-4.9-0.8-7.8-0.8 -2.6 0-5.3 0.2-7.9 0.6 -8 1.2-15.6 4.1-20.9 7.8l-0.3 0.2c-1-5.7-2.4-11.3-3.6-15.2l-3.6-11.6 -12.1-0.4c-0.8 0-1.6 0-2.5 0 -2.3 0-4.6 0.1-7.1 0.3 0-0.3-0.1-0.6-0.1-0.9l3.4-1.5c4.8-2.2 14.8-7.8 19.7-11.7l4.1-3.2c5.2 1.8 10.9 2.8 16.8 2.8 4.2 0 8.5-0.5 12.8-1.4 11.3-2.5 22-7.6 29.5-14l2.2-1.9c7.3 4.7 15.4 6.8 23 6.8 1.1 0 2.3 0 3.4-0.1 5.4-0.4 10.4-1.7 14.9-3.7l1.2 1.8 9.9-0.8c6-0.5 19.6-2.3 28.3-5.8l6.2-2.5 2.8-6.1c2.6-5.5 3.5-13.2 3.2-18 -0.1-1.3-0.3-3.3-0.9-5.6l-3.8-13.4 -8.1 0.6 -5.6-71.2 -0.9-11.3 -10.8-3.5c-3.3-1.1-7.7-1.6-12.8-1.6 -1.6 0-3.2 0.1-4.7 0.2 -8.4 0.7-16.8 2.9-22.5 6.1l-4.7 2.7 -2.3 4.9c-2.9 6.2-4.2 15.3-3.9 21l0.1 2.2c-8.9 3.2-16.5 8.9-22.2 16.6 -0.9 1.3-1.8 2.6-2.6 3.9 0 0 0-0.1-0.1-0.1 -7.6-8.4-17.8-12.9-29.4-12.9h0c-3.5 0-7.2 0.4-10.9 1.2 -14.8 3.2-27 11.7-34.2 23.9 -0.8 1.4-1.6 2.8-2.3 4.3 -0.4-1.4-0.9-2.8-1.4-4.3 -7-18.1-22.3-28.5-42.1-28.5 -8.6 0-18.1 2-28.1 5.8 -11.2 4.3-28.2 11.6-39.3 17.4l-12 6.3 3.5 13.1c1.4 5.2 4.5 12.8 7 16.9l5.7 9.5 7.4-0.9 14.8 38.5 -4.2 3.9 -0.4 6.9c-0.3 6 1.4 14.5 2.6 18.5l5.2 17.7 17.2-6.6 20.9-8c-5 3.5-9.2 7.5-12.4 12 -7.6 10.7-9.6 23.8-5.5 36.8 3.1 10 8.4 18 15.7 23.7l-6.3 2 1.6 14c1 8.9 4.2 22.3 6.6 30.2l3.5 11.3 11.8 0.6c1.4 0.1 2.9 0.1 4.3 0.1 10.3 0 22.6-2 33.7-5.4 10.7-3.3 19.5-7.9 26.3-13.5 -1.1 4.7-1.3 10.8-1 15.1l1.3 18.4 18.3-2.8 44.1-6.7 14.5-2.2 0-14.6c0-4.9-1.7-13.2-4.3-18.3 0.7-0.3 1.3-0.7 2-1.1l17.9-0.7 41-1.6 9.1-0.4c4.1 1.9 8.7 3 13.4 3.3 1.2 0.1 2.4 0.1 3.6 0.1 5.6 0 10.5-0.9 14.6-2.4 0.9 0.7 1.8 1.3 2.7 1.8l3.5 2 4 0.3c1.4 0.1 2.8 0.1 4.2 0.1 5.6 0 12.9-0.7 19.1-2.7 7.1 4.5 15.6 7.6 25.9 9.5 4.3 0.8 8.5 1.2 12.4 1.2 3.9 0 7.7-0.4 11.1-1.2l7 2.4 38 12.8 13.5 4.6 29.3 9.9 14 4.7 6.6-13.2c1-2 1.5-3.6 2-4.9 0.5-1.5 2.2-6.9 2.7-11.5l0.8-8.4 -5.5-5.1c2.2-5.9 4.5-12.1 6.4-17.8 4.8-14.4 4.3-26.6-1.5-36.3 -6.8-11.3-18.7-15.4-22.6-16.7 -1.9-0.6-3.7-1.1-5.5-1.5l4.5-13.4 3.6-10.8 -3.8-3.3c0.2-0.1 0.3-0.2 0.5-0.4 3.3 3.4 7.5 6.3 12.6 8.7 6 2.8 16 5.7 24.8 5.7 0.9 0 1.7 0 2.6-0.1l4.3-0.3 3.7-2.3c5.6-3.5 11.4-10.1 14.2-16 0.3-0.6 1.1-2.4 1.7-4.7l4.3-17.6 -17.9-3.2c-0.1 0-0.2 0-0.3-0.1l2.4-5.2 2.8 1.3 13.4 6.3 8.1-12.4c3.5-5.4 6.7-13.9 7.7-18.8l2.6-13L589.2 239.2z"/><path class="st9" d="M581.2 230.2l-2.2-1 1.8-3.9 7.2-15.4 -15.4-7.2c-5.9-2.8-15.7-5.8-23.3-5.8 -0.5 0-1 0-1.5 0l-8.4 0.5 -4.7 7 -3.6 5.4c-0.4 0-0.9 0.1-1.3 0.1l-5.1 0.5 -3.9 3.2c-0.6-1.3-1.2-2.5-2-3.7 -5.2-8.5-13.9-14.7-26.5-18.9 -9.3-3.1-21.7-5.4-29.4-5.4 -0.6 0-1.1 0-1.6 0l-6.5 0.3 -1.1 1.1 2.1-6.2c1.9-5.6 3-12.3 3.1-18l0.1-14.7 -14.6-2.2 -39.8-6 -8.7-1.3v0l-13.8-2.1 -39.8-6 -14-2.1 -4.6 13.3c-2.3 6.5-2.6 12.8-2.7 18.1l-0.1 10.8 7.1 3.5 -6.3 42.3 -5.6 1.3 -3.7 5.8c-3.2 5-5.9 13.3-6.9 17.3l-4.2 17.9 18.2 2.7 44.1 6.6 0.1 0 0 0 18.2 2.7 44 6.6 5.1 0.8c4.3 4.6 9.7 8.1 15.9 10.1 5.1 1.7 10.2 2.6 14.9 2.6 1.1 0 2.2 0 3.3-0.1 0.4 0.5 0.8 0.9 1.2 1.4 -0.1 0-0.1 0-0.2 0 -1.4 0-2.7 0.1-3.9 0.2l-5.4 0.6 -4.1 3.6c-5.1 4.5-9.8 12.4-11.9 17.8l-2.3 6.1c-7-3.9-14.8-6.7-23.1-8.3 -3.9-0.7-7.7-1.1-11.4-1.1 -13.4 0-24.7 5.1-31.8 13.8 -1.8-4.3-4.4-8.1-7.8-11.4 -7.2-6.9-17.2-10.7-30.5-11.6 -2-0.1-4.1-0.2-6.4-0.2 -7.5 0-18 0.8-25 2.9l-6.2 1.9 -1.4 2.2 -0.9-22.4 -0.4-11.4 -10.7-3.9c-5.2-1.9-11.8-2.2-15.3-2.2 -0.7 0-1.5 0-2.2 0 -8.4 0.3-16.9 2.3-22.7 5.2l-4.8 2.5 -2.5 4.8c-3.2 6.1-4.8 15.1-4.8 20.9l0 7.5c-5.4-2.5-11.4-3.8-17.6-3.8 -2.2 0-4.4 0.2-6.6 0.5 -4.5 0.7-10.6 2.3-16.5 6.2 -2.3-0.5-4.9-0.8-7.8-0.8 -2.6 0-5.3 0.2-7.9 0.6 -8 1.2-15.6 4.1-20.9 7.8l-0.3 0.2c-1-5.7-2.4-11.3-3.6-15.2l-3.6-11.6 -12.1-0.4c-0.8 0-1.6 0-2.5 0 -2.3 0-4.6 0.1-7.1 0.3 0-0.3-0.1-0.6-0.1-0.9l3.4-1.5c4.8-2.2 14.8-7.8 19.7-11.7l4.1-3.2c5.2 1.8 10.9 2.8 16.8 2.8 4.2 0 8.5-0.5 12.8-1.4 11.3-2.5 22-7.6 29.5-14l2.2-1.9c7.3 4.7 15.4 6.8 23 6.8 1.1 0 2.3 0 3.4-0.1 5.4-0.4 10.4-1.7 14.9-3.7l1.2 1.8 9.9-0.8c6-0.5 19.6-2.3 28.3-5.8l6.2-2.5 2.8-6.1c2.6-5.5 3.5-13.2 3.2-18 -0.1-1.3-0.3-3.3-0.9-5.6l-3.8-13.4 -8.1 0.6 -5.6-71.2 -0.9-11.3 -10.8-3.5c-3.3-1.1-7.7-1.6-12.8-1.6 -1.6 0-3.2 0.1-4.7 0.2 -8.4 0.7-16.8 2.9-22.5 6.1l-4.7 2.7 -2.3 4.9c-2.9 6.2-4.2 15.3-3.9 21l0.1 2.2c-8.9 3.2-16.5 8.9-22.2 16.6 -0.9 1.3-1.8 2.6-2.6 3.9 0 0 0-0.1-0.1-0.1 -7.6-8.4-17.8-12.9-29.4-12.9h0c-3.5 0-7.2 0.4-10.9 1.2 -14.8 3.2-27 11.7-34.2 23.9 -0.8 1.4-1.6 2.8-2.3 4.3 -0.4-1.4-0.9-2.8-1.4-4.3 -7-18.1-22.3-28.5-42.1-28.5 -8.6 0-18.1 2-28.1 5.8 -11.2 4.3-28.2 11.6-39.3 17.4l-12 6.3 3.5 13.1c1.4 5.2 4.5 12.8 7 16.9l5.7 9.5 7.4-0.9 14.8 38.5 -4.2 3.9 -0.4 6.9c-0.3 6 1.4 14.5 2.6 18.5l5.2 17.7 17.2-6.6 20.9-8c-5 3.5-9.2 7.5-12.4 12 -7.6 10.7-9.6 23.8-5.5 36.8 3.1 10 8.4 18 15.7 23.7l-6.3 2 1.6 14c1 8.9 4.2 22.3 6.6 30.2l3.5 11.3 11.8 0.6c1.4 0.1 2.9 0.1 4.3 0.1 10.3 0 22.6-2 33.7-5.4 10.7-3.3 19.5-7.9 26.3-13.5 -1.1 4.7-1.3 10.8-1 15.1l1.3 18.4 18.3-2.8 44.1-6.7 14.5-2.2 0-14.6c0-4.9-1.7-13.2-4.3-18.3 0.7-0.3 1.3-0.7 2-1.1l17.9-0.7 41-1.6 9.1-0.4c4.1 1.9 8.7 3 13.4 3.3 1.2 0.1 2.4 0.1 3.6 0.1 5.6 0 10.5-0.9 14.6-2.4 0.9 0.7 1.8 1.3 2.7 1.8l3.5 2 4 0.3c1.4 0.1 2.8 0.1 4.2 0.1 5.6 0 12.9-0.7 19.1-2.7 7.1 4.5 15.6 7.6 25.9 9.5 4.3 0.8 8.5 1.2 12.4 1.2 3.9 0 7.7-0.4 11.1-1.2l7 2.4 38 12.8 13.5 4.6 29.3 9.9 14 4.7 6.6-13.2c1-2 1.5-3.6 2-4.9 0.5-1.5 2.2-6.9 2.7-11.5l0.8-8.4 -5.5-5.1c2.2-5.9 4.5-12.1 6.4-17.8 4.8-14.4 4.3-26.6-1.5-36.3 -6.8-11.3-18.7-15.4-22.6-16.7 -1.9-0.6-3.7-1.1-5.5-1.5l4.5-13.4 3.6-10.8 -3.8-3.3c0.2-0.1 0.3-0.2 0.5-0.4 3.3 3.4 7.5 6.3 12.6 8.7 6 2.8 16 5.7 24.8 5.7 0.9 0 1.7 0 2.6-0.1l4.3-0.3 3.7-2.3c5.6-3.5 11.4-10.1 14.2-16 0.3-0.6 1.1-2.4 1.7-4.7l4.3-17.6 -17.9-3.2c-0.1 0-0.2 0-0.3-0.1l2.4-5.2 2.8 1.3 13.4 6.3 8.1-12.4c3.5-5.4 6.7-13.9 7.7-18.8l2.6-13L581.2 230.2z"/><g><g><path class="st10" d="M50.9 301.2c-1-3.2-2.2-9.8-2-13.2l0-0.6 0.4-0.4c1.7-1.5 5.5-3.9 7.3-5.1L32.9 220c-2.5 0.9-5.9 1.8-8 2l-1 0.1 -0.5-0.8c-1.8-2.9-4.3-9.1-5.3-12.9l-0.3-1.2 1.1-0.6c10.6-5.5 26.9-12.5 37.7-16.6 8.2-3.2 15.8-4.8 22.5-4.8 13.4 0 22.9 6.4 27.6 18.6 4.3 11.3 1.2 23.3-8.3 32.5 11.7 9.6 24 17.1 28.5 18.4l7.9-4.1 0.6 1.6c1.6 4.1 3 11.2 2.6 15.3l-0.1 0.6 -0.5 0.4c-3.4 2.7-12.1 7.7-16.5 9.7l-0.5 0.2 -0.5-0.1c-6.6-1.6-27.5-16.9-41.1-30 -2.7 1-5.4 1.8-7.8 2.3l8.6 22.3c3.1-0.8 6.8-1.4 9.3-1.6l0.8-0.1 0.5 0.7c2 2.7 4.8 9.2 5.4 12.4l0.2 1.2 -44.4 17.1L50.9 301.2zM65.3 236c2.9-0.7 6.8-2 9.6-3.1 13.1-5 10.7-15.3 9.1-19.5 -2.3-5.9-7.3-9.1-14.1-9.1 -3 0-6.2 0.6-9.5 1.9 -2 0.8-4.1 1.7-5.7 2.5L65.3 236z"/><path class="st11" d="M79.1 186.8c11.9 0 21.5 5.3 26.2 17.6 4.8 12.4-0.2 24.2-9.2 32.1 12.6 10.5 26.3 19 31 19.9l6.9-3.5c1.6 4 2.8 10.9 2.5 14.6 -3.3 2.6-12 7.6-16.2 9.5 -6.1-1.5-27-16.6-41.1-30.3 -3.9 1.5-7.6 2.5-10.2 2.9l9.7 25.2c3.1-0.9 7.6-1.7 10.3-1.9 1.9 2.6 4.6 8.8 5.1 11.8l-41.8 16.1c-1-3.4-2.1-9.7-1.9-12.7 1.6-1.5 6-4.2 8.2-5.5l-24.8-64.4c-2.6 1-6.8 2.2-9.1 2.4 -1.7-2.8-4.2-8.9-5.1-12.5 9.8-5.1 25.7-12 37.5-16.6C64.9 188.4 72.4 186.8 79.1 186.8M64.3 237.7c2.9-0.5 7.6-2 11.1-3.4 8.7-3.4 14.1-10.8 10-21.5 -2.6-6.7-8.4-10.1-15.5-10.1 -3.2 0-6.6 0.7-10.1 2 -2.5 1-5.2 2.1-7 3.1L64.3 237.7M79.1 183.8c-6.9 0-14.7 1.6-23 4.9 -10.8 4.2-27.2 11.2-37.9 16.7l-2.1 1.1 0.6 2.3c1 3.9 3.6 10.3 5.5 13.3l1 1.7 1.9-0.2c1.9-0.2 4.6-0.9 6.9-1.7l22.9 59.4c-2.1 1.3-5 3.2-6.5 4.6l-0.9 0.8 -0.1 1.2c-0.2 3.7 1.1 10.5 2 13.7l0.9 3.1 3-1.2 41.8-16.1 2.3-0.9 -0.4-2.4c-0.6-3.4-3.5-10.1-5.7-13l-1-1.3 -1.6 0.1c-2.2 0.1-5.4 0.7-8.3 1.3L73 251.7c1.8-0.4 3.6-1 5.4-1.6 14 13.3 34.3 28.1 41.1 29.8l1 0.3 1-0.4c4.5-2 13.3-7.1 16.8-9.9l1-0.8 0.1-1.3c0.4-4.5-1.1-11.8-2.7-15.9l-1.2-3.1 -3 1.5 -5.8 3c-4.2-1.4-14.9-7.8-26.1-16.9 9-9.5 11.8-21.6 7.4-33C103.2 190.5 93.1 183.8 79.1 183.8L79.1 183.8zM56.6 209.4c1.3-0.6 2.8-1.2 4.3-1.8 3.1-1.2 6.2-1.8 9-1.8 6.1 0 10.6 2.9 12.7 8.2 1.5 3.8 3.6 13-8.2 17.6 -2.7 1.1-5.8 2-8.2 2.7L56.6 209.4 56.6 209.4z"/></g><g><path class="st10" d="M167.9 264.8c-16.8 0-29.7-11.1-33.6-29 -4.9-22.6 6.6-41.6 28.1-46.3 2.7-0.6 5.2-0.9 7.6-0.9 14 0 23.2 9.6 27.3 28.4 0.6 2.5 0.9 5.7 1.1 7.9l0.1 1.3 -39.7 8.7c2.7 6.8 7.8 10.4 14.7 10.4 0 0 0 0 0 0 1.6 0 3.3-0.2 5.1-0.6 5.8-1.3 15.6-5.2 20.1-8l1.6-1 0.6 1.8c1.3 3.8 1.1 10.7-0.5 15l-0.1 0.4 -0.3 0.3c-5.5 4.7-13.9 8.7-22.7 10.6C174.1 264.5 170.9 264.8 167.9 264.8zM164.9 204.6c-0.6 0-1.2 0.1-1.9 0.2 -5.6 1.2-8.8 7.1-8.2 14.8l19.1-4.2C173 209.9 169.9 204.6 164.9 204.6z"/><path class="st11" d="M169.9 190.1c14 0 22.2 10.4 25.9 27.3 0.5 2.3 0.9 5.2 1.1 7.7l-40 8.8c2.8 8.6 8.7 13 16.7 13 1.7 0 3.5-0.2 5.4-0.6 6.1-1.3 16.1-5.4 20.6-8.2 1.2 3.6 0.9 10.1-0.5 14 -4.4 3.8-12.3 8.1-22 10.2 -3.2 0.7-6.3 1-9.2 1 -16.8 0-28.5-11.1-32.2-27.8 -4.7-21.5 5.7-39.9 26.9-44.6C165.2 190.4 167.6 190.1 169.9 190.1M153.5 221.5l22.1-4.8c-0.7-6.6-4.1-13.6-10.7-13.6 -0.7 0-1.4 0.1-2.2 0.3C155.7 204.9 152.2 212.4 153.5 221.5M169.9 187.1L169.9 187.1c-2.5 0-5.2 0.3-7.9 0.9 -11.2 2.4-19.9 8.4-25.1 17.4 -5.2 8.7-6.6 19.4-4.1 30.8 4.1 18.6 17.5 30.2 35.1 30.2 3.2 0 6.5-0.4 9.8-1.1 9-2 17.7-6 23.3-10.9l0.6-0.5 0.3-0.7c1.7-4.6 2-11.8 0.5-16l-1.2-3.6 -3.2 2c-4.3 2.7-14.1 6.6-19.6 7.8 -1.7 0.4-3.3 0.5-4.8 0.5 -5.8 0-10-2.6-12.6-7.9l36.6-8 2.6-0.6 -0.3-2.7c-0.3-2.4-0.6-5.5-1.2-8.1C195.8 203.2 188.4 187.1 169.9 187.1L169.9 187.1zM156.2 217.9c0-6.1 2.7-10.6 7.1-11.5 0.6-0.1 1.1-0.2 1.6-0.2 4.2 0 6.3 4.4 7.2 8.2L156.2 217.9 156.2 217.9z"/></g><g><path class="st10" d="M235.3 254.4c-6 0-25.9-2.4-28.3-32.6 -1.9-24.4 11-41.9 32.1-43.6 0.8-0.1 1.7-0.1 2.5-0.1 3.4 0 6.4 0.6 9.2 1.7l-1.3-16.2 -9.8 0.8 -0.1-1.6c-0.2-4.2 1-10.5 2.5-13.8l0.2-0.4 0.4-0.2c3.7-2.1 10-3.7 16.1-4.2 1.1-0.1 2.3-0.1 3.5-0.1 1.6 0 5.6 0.1 8.1 0.9l1 0.3 6.1 77.9c0.3 3.3 1 7.1 1.8 9.7l9.8-0.8 0.3 1.2c0.2 0.8 0.3 1.8 0.4 2.6 0.2 2.9-0.6 7.8-1.8 10.2l-0.2 0.5 -0.5 0.2c-5.7 2.3-16.5 4.2-23.7 4.7l-0.9 0.1 -0.5-0.7c-1.7-2.6-3.1-5.6-4.2-8.9 -3 5.5-8.9 11.4-20.4 12.3C236.8 254.3 236 254.4 235.3 254.4zM246.8 194.3c-0.5 0-0.9 0-1.4 0.1 -7.4 0.6-15.9 5-14.5 22.6 0.9 11.9 5.8 19 12.9 19h0c0.3 0 0.6 0 0.9 0 5.6-0.4 9.1-4.5 10.3-6.3l-2.7-34.4C250.7 194.6 248.7 194.3 246.8 194.3z"/><path class="st11" d="M262.3 145.5c2.9 0 5.9 0.2 7.6 0.8l6 76.9c0.3 3.9 1.2 8.4 2.3 11.1l9.7-0.8c0.2 0.7 0.3 1.5 0.3 2.4 0.2 2.5-0.6 7.2-1.6 9.5 -5.6 2.3-16.2 4.1-23.3 4.6 -2.1-3.1-3.6-6.7-4.6-10.7l-1.3 0.1c-2.6 5.8-8.3 12.4-20.1 13.3 -0.7 0.1-1.4 0.1-2.1 0.1 -11.6 0-24.9-7.6-26.8-31.2 -1.9-23.8 10.7-40.4 30.7-42 0.8-0.1 1.6-0.1 2.3-0.1 4.4 0 8 1 10.9 2.7l-1.6-20.3 -9.7 0.8c-0.2-3.9 0.9-10 2.3-13 3.5-2 9.5-3.5 15.5-4C260 145.6 261.1 145.5 262.3 145.5M243.8 237.4c0.3 0 0.7 0 1 0 5.6-0.4 9.6-4.1 11.7-7.4l-2.8-35.9c-2-0.9-4.5-1.3-7-1.3 -0.5 0-1 0-1.5 0.1 -12.1 0.9-16.9 10.4-15.9 24.2C230.5 230.6 236.3 237.4 243.8 237.4M262.3 142.5c-1.3 0-2.5 0-3.6 0.1 -6.4 0.5-12.8 2.2-16.7 4.4l-0.8 0.5 -0.4 0.9c-1.6 3.4-2.8 10-2.6 14.5l0.1 3.1 3.1-0.2 6.7-0.5 1 12.4c-2.3-0.7-4.8-1-7.5-1 -0.8 0-1.7 0-2.6 0.1 -10.8 0.8-19.7 5.6-25.7 13.9 -6 8.2-8.7 19-7.7 31.3 0.9 11.5 4.5 20.4 10.6 26.4 5.1 4.9 11.9 7.6 19.2 7.6 0.8 0 1.6 0 2.3-0.1 10.3-0.8 16.3-5.5 19.9-10.4 0.9 2.3 2 4.4 3.3 6.4l1 1.5 1.7-0.1c7.4-0.6 18.3-2.5 24.2-4.8l1.1-0.4 0.5-1.1c1.3-2.7 2.1-7.9 1.9-11 -0.1-1-0.2-2-0.4-2.9l-0.7-2.4 -2.5 0.2 -7.4 0.6c-0.7-2.4-1.2-5.5-1.4-8.2l-6-76.9 -0.2-2 -1.9-0.6C268.2 142.6 264 142.5 262.3 142.5L262.3 142.5zM243.8 234.4c-6.3 0-10.6-6.6-11.4-17.6 -0.5-6.3 0.4-11.6 2.6-15.1 2.2-3.6 5.6-5.5 10.6-5.9 0.4 0 0.8 0 1.3 0 1.4 0 2.9 0.2 4.2 0.5l2.6 32.8c-1.3 1.7-4.3 4.9-8.9 5.2C244.4 234.4 244.1 234.4 243.8 234.4L243.8 234.4z"/></g><g><path class="st10" d="M382.3 256.5l0.4-1.6c0.8-3.3 2.8-9.6 4.5-12.5l0.3-0.5 0.6-0.2c2-0.5 6-0.8 8.1-0.9l3.8-25.6 -37.2-5.6 -3.8 25.4c3 0.8 6.5 2.1 8.8 3.2l0.7 0.4 0.1 0.8c0.4 3.3-0.3 10.4-1.4 13.4l-0.4 1.2 -47-7 0.4-1.6c0.8-3.3 3-9.6 4.8-12.5l0.3-0.5 0.6-0.1c2.2-0.5 6.7-0.7 8.9-0.8l9.9-66.2c-2.6-0.7-5.8-1.8-7.8-2.8l-0.9-0.4 0-1c0-3.9 0.2-8.5 1.8-13.2l0.4-1.2 42.3 6.3 0.1 1.2c0.2 3.1-1.1 10.3-2.3 13.3l-0.3 0.8 -0.8 0.1c-1.2 0.2-3.2 0.3-5.5 0.3 -1 0-1.9 0-2.8-0.1l-3.6 24.2 37.2 5.6 3.6-24.1c-2.3-0.7-5.2-1.7-6.9-2.6l-0.8-0.4 0-0.9c-0.1-3.2 0.6-10.3 1.9-13.3l0.4-1.1 42.3 6.3 0 1.3c0 4-0.9 9.1-2.2 13.1l-0.3 0.9 -0.9 0.1c-1.2 0.2-3 0.2-5 0.2 -1.4 0-2.9 0-4.2-0.1l-9.9 66.2c3.3 0.9 7.1 2.2 9.7 3.3l0.8 0.4 0.1 0.8c0.3 2.5 0 6.3-0.5 9.1 -0.3 2.1-0.8 3.7-0.9 4.3l-0.4 1.2L382.3 256.5z"/><path class="st11" d="M339.4 148.6l39.8 6c0.1 2.8-1 9.9-2.2 12.6 -1.2 0.2-3.3 0.3-5.3 0.3 -1.5 0-3-0.1-4.1-0.2l-4 27 40.1 6 4-26.9c-2.6-0.7-6.1-1.9-7.9-2.9 -0.1-3.1 0.6-9.9 1.8-12.7l39.8 6c0 3.9-0.9 8.9-2.2 12.6 -1.2 0.2-3 0.2-4.8 0.2 -2 0-4-0.1-5.5-0.2l-10.3 68.9c3.4 0.8 8 2.3 10.7 3.6 0.2 2.2 0 5.6-0.5 8.7 -0.2 1.7-0.6 3.2-0.9 4.1l-44-6.6c0.8-3.4 2.8-9.4 4.3-12 2.1-0.5 6.7-0.8 9-0.9l4.2-28.3 -40.1-6 -4.2 28.3c3.1 0.8 7.3 2.2 9.8 3.4 0.4 3.2-0.4 10-1.3 12.8l-44.1-6.6c0.8-3.4 3-9.4 4.6-12 2.2-0.5 7.3-0.7 9.8-0.8l10.3-68.8c-2.9-0.7-6.7-2-8.9-3C337.6 157.2 337.9 152.9 339.4 148.6M337.3 145.3l-0.8 2.4c-1.6 4.6-1.9 9.3-1.9 13.7l0 1.9 1.7 0.8c1.8 0.9 4.4 1.8 6.8 2.5l-9.5 63.7c-2.4 0.1-6 0.3-7.9 0.8l-1.2 0.3 -0.7 1c-2 3.1-4.2 9.7-5 12.9l-0.7 3.2 3.2 0.5 44.1 6.6 2.5 0.4 0.8-2.3c1.1-3.3 1.9-10.5 1.5-14.1l-0.2-1.6 -1.5-0.7c-2-1-5-2.1-7.7-2.9l3.4-22.7 34.2 5.1 -3.4 22.9c-2.3 0.1-5.4 0.4-7.2 0.9l-1.2 0.3 -0.6 1.1c-1.8 3.1-3.9 9.6-4.7 12.9l-0.7 3.2 3.2 0.5 44 6.6 2.6 0.4 0.7-2.5c0.2-0.6 0.7-2.3 1-4.5 0.4-2.8 0.8-6.8 0.5-9.5l-0.2-1.7 -1.5-0.7c-2.3-1-5.6-2.2-8.6-3.1l9.5-63.6c0.9 0 1.9 0.1 2.9 0.1 1.5 0 3.7 0 5.2-0.3l1.8-0.3 0.6-1.8c1.4-4.2 2.3-9.4 2.3-13.6l0-2.6 -2.6-0.4 -39.8-6 -2.3-0.4 -0.9 2.2c-1.3 3.3-2.1 10.6-2 13.9l0.1 1.7 1.5 0.8c1.5 0.8 3.8 1.7 6 2.4l-3.2 21.3 -34.2-5.1 3.2-21.4c0.5 0 1 0 1.5 0 1.4 0 4 0 5.8-0.4l1.6-0.3 0.6-1.5c1.3-3.2 2.5-10.6 2.4-13.9l-0.1-2.5 -2.4-0.4 -39.8-6L337.3 145.3 337.3 145.3z"/></g><g><path class="st10" d="M494.8 286.5c-5 0-11.2-1-16.3-2.7l-0.3-0.1 -0.2-0.2c-2.3-2.3-3.7-6.4-3.7-10.9 -3.8 2.7-8 4.1-12.7 4.1 -3.1 0-6.5-0.6-10-1.8 -9.9-3.3-18.3-13.4-13.5-27.9 3.4-10.3 11.9-16.2 23.3-16.2 4.1 0 8.4 0.7 12.9 2.2 3.2 1.1 6.3 2.7 8.9 4.6l0.9-2.9c1-3 0.9-5.3-0.3-7.2 -1.2-1.9-3.5-3.4-7.1-4.6 -3.6-1.2-9.8-2-15.7-2 -2.7 0-5.1 0.2-6.8 0.5l-1.9 0.3 0.1-1.9c0.1-1.3 0.7-4 1.1-5.2 1.5-4.5 4.4-9.4 7.1-12l0.4-0.4 0.6 0c0.3 0 0.6 0 1 0 6.1 0 16.8 2 24.5 4.6 18.6 6.2 24.6 16.9 19.1 33.6l-7.4 22.2c-1.2 3.7-1.6 6.9-1.4 8.8 2.4 0.7 5.7 1.3 7.7 1.5l1.6 0.1 -0.3 1.6c-0.2 1.1-0.4 1.8-0.6 2.4 -1 3-3.1 6.2-5.6 8.7l-0.3 0.3 -0.4 0.1C498.2 286.4 496.7 286.5 494.8 286.5zM468.6 246.6c-3.9 0-6.6 1.9-7.7 5.5 -1.5 4.5 0.1 8 4.4 9.4 1.5 0.5 3 0.8 4.5 0.8 2.6 0 4.7-0.8 6.2-1.5l3.6-10.7c-1.9-1-4.2-2-5.7-2.5C472 246.9 470.2 246.6 468.6 246.6z"/><path class="st11" d="M462.6 203.7c5.8 0 16.4 1.9 24.1 4.5 16.7 5.5 23.7 14.9 18.1 31.7l-7.4 22.2c-1.4 4.1-1.8 8.1-1.4 10.4 2.5 0.8 6.5 1.6 9 1.8 -0.2 1-0.4 1.6-0.6 2.2 -1 2.9-3 5.9-5.2 8.1 -1.1 0.2-2.6 0.4-4.3 0.4 -4.5 0-10.6-0.9-15.8-2.6 -2.4-2.4-3.5-7.1-3.2-11.6l-1.2-0.4c-3.6 3-7.9 4.8-13.1 4.8 -2.9 0-6.1-0.5-9.6-1.7 -9.7-3.2-16.9-12.8-12.5-26 3.5-10.5 11.9-15.1 21.9-15.1 4 0 8.2 0.7 12.4 2.1 3.8 1.3 7.4 3.3 10.1 5.7l1.6-4.9c2.3-6.9-0.7-11.1-8.4-13.7 -4.1-1.4-10.6-2.1-16.2-2.1 -2.7 0-5.2 0.2-7.1 0.5 0.1-1.1 0.6-3.6 1-4.8 1.5-4.5 4.4-9.1 6.7-11.4C462 203.7 462.3 203.7 462.6 203.7M469.8 263.8c3 0 5.5-0.9 7.4-2l4.1-12.4c-2.2-1.3-5.3-2.6-7-3.2 -2.1-0.7-4-1-5.7-1 -4.6 0-7.8 2.4-9.2 6.5 -2 6 1 9.9 5.3 11.3C466.5 263.5 468.2 263.8 469.8 263.8M462.6 200.7c-0.4 0-0.7 0-1 0l-1.1 0 -0.8 0.8c-2.9 2.8-5.9 7.9-7.5 12.6 -0.4 1.3-1 4-1.2 5.5l-0.3 3.9 3.8-0.7c1.6-0.3 4-0.5 6.5-0.5 5.8 0 11.8 0.8 15.3 1.9 3.2 1.1 5.3 2.4 6.3 4 0.9 1.5 1 3.4 0.1 5.9l-0.3 1c-2.4-1.5-5-2.8-7.7-3.7 -4.6-1.5-9.1-2.3-13.4-2.3 -12.1 0-21.1 6.3-24.7 17.2 -5.2 15.5 3.9 26.3 14.4 29.8 3.7 1.2 7.3 1.9 10.5 1.9 4.1 0 7.9-1 11.3-2.9 0.5 3.8 1.9 7.2 4 9.3l0.5 0.5 0.7 0.2c5.2 1.7 11.6 2.8 16.8 2.8 1.9 0 3.6-0.1 4.9-0.4l0.9-0.2 0.6-0.6c2.7-2.7 4.9-6.1 5.9-9.3 0.2-0.6 0.5-1.4 0.7-2.6l0.6-3.2 -3.3-0.3c-1.6-0.1-4.2-0.6-6.4-1.1 0.1-1.8 0.5-4.4 1.4-7.2l7.4-22.2c5.8-17.5-0.7-29.1-20-35.5C479.7 202.8 468.8 200.7 462.6 200.7L462.6 200.7zM469.8 260.8c-1.3 0-2.7-0.2-4.1-0.7 -2-0.7-5.1-2.5-3.4-7.5 1-3 3.1-4.5 6.3-4.5 1.4 0 3 0.3 4.8 0.9 1.1 0.4 2.8 1.1 4.3 1.8l-3 8.9C473.5 260.3 471.8 260.8 469.8 260.8L469.8 260.8z"/></g><g><path class="st10" d="M543.3 307.7c-6.1 0-13.8-2.1-18.2-4.2 -6.6-3.1-10.6-7.1-12.2-12.1 -1.6-5.2-0.6-11.4 3-19.1 3.4-7.2 9.2-18.8 14.9-28.6l-9.3-4.4 0.6-1.4c1.5-3.2 5.5-8.9 8.1-11.1l0.4-0.3 0.5 0c0.6-0.1 1.4-0.1 2.2-0.1 1.8 0 3.8 0.2 5.5 0.4l8.9-13.1 0.7 0c0.2 0 0.5 0 0.7 0 4.7 0 12.2 2.2 16.7 4.3l1.4 0.6 -9.1 19.3 17.2 8.1 -0.2 1.1c-0.6 2.8-3 9.6-5.5 13.3l-0.7 1.1 -18-8.5 -12.5 26.5c-1.4 3-1.8 5.3-1.2 7 0.5 1.5 1.9 2.8 4.3 3.9 2.9 1.4 8.3 3 12 3.7l1.6 0.3 -0.4 1.6c-0.2 0.8-0.6 1.6-0.7 1.9 -1.4 2.9-5 7.3-8.4 9.5l-0.3 0.2 -0.4 0C544.4 307.7 543.9 307.7 543.3 307.7z"/><path class="st11" d="M549.1 215.1c4.2 0 11.5 2 16.1 4.2l-9.1 19.3 17.5 8.3c-0.6 2.8-3 9.4-5.2 12.8l-18.2-8.5L537.1 279c-3.3 6.9-1.4 10.4 3.8 12.9 3.2 1.5 8.7 3.2 12.4 3.8 -0.2 0.7-0.5 1.3-0.6 1.6 -1.3 2.8-4.8 7-7.9 8.9 -0.5 0-1 0-1.5 0 -5.9 0-13.3-2.1-17.6-4.1 -12.1-5.7-15.4-14.5-8.4-29.2 3.9-8.2 10.1-20.4 15.6-29.9l-9.5-4.5c1.4-3 5.2-8.5 7.7-10.5 0.6-0.1 1.3-0.1 2-0.1 2.1 0 4.5 0.2 6.2 0.6l9-13.3C548.7 215.1 548.9 215.1 549.1 215.1M549.1 212.1c-0.3 0-0.5 0-0.8 0l-1.5 0.1 -0.8 1.2 -8 11.7c-1.6-0.2-3.3-0.3-4.8-0.3 -0.8 0-1.6 0-2.3 0.1l-0.9 0.1 -0.7 0.6c-2.8 2.3-6.9 8.1-8.5 11.6l-1.3 2.7 2.7 1.3 6.5 3.1c-5.4 9.6-10.9 20.5-14.1 27.3 -3.8 8-4.8 14.6-3.1 20.2 1.7 5.5 5.9 9.7 13 13.1 4.5 2.1 12.3 4.4 18.9 4.4 0.6 0 1.1 0 1.7-0.1l0.8 0 0.6-0.4c3.7-2.3 7.6-7.1 9-10.2 0.2-0.3 0.5-1.2 0.8-2.1l0.8-3.1 -3.2-0.6c-3.6-0.6-8.8-2.2-11.6-3.6 -2-0.9-3.1-1.9-3.5-3 -0.5-1.3-0.1-3.3 1.1-5.9l11.8-25.2 15.5 7.3 2.4 1.1 1.4-2.2c2.3-3.6 5-10.5 5.7-13.8l0.5-2.3 -2.1-1 -14.8-7 7.8-16.6 1.3-2.7 -2.7-1.3C561.8 214.4 554 212.1 549.1 212.1L549.1 212.1z"/></g></g><g><g><path class="st10" d="M98.6 423.8c-1.2 0-2.4 0-3.5-0.1l-1-0.1 -0.3-1c-2.2-7-5.1-19.4-6-27.3l-0.1-1.2 1.2-0.4c4.4-1.4 12.4-2.9 17.2-2.9 0.2 0 0.4 0 0.7 0l1.1 0 4.2 13.6c0.5 0 0.9 0 1.4 0 4.7 0 8.7-0.5 12.3-1.7 4.6-1.4 8.1-3.6 10-6.4 1.9-2.7 2.3-5.8 1.2-9.3 -2.5-8.2-11.7-9-22.2-10 -14.2-1.4-31.9-3-38.5-24.4 -2.6-8.4-1.4-16.4 3.4-23.2 4.8-6.7 12.9-12 23.7-15.4 7.9-2.5 19.2-4.1 27.9-4.1 0.7 0 1.3 0 2 0l1.1 0 0.3 1c2.1 6.8 4.3 18.3 4.7 25.1l0.1 1.2 -1.1 0.3c-3.5 1.1-8.8 1.8-13.3 1.8 -1.5 0-2.8-0.1-3.9-0.2l-0.9-0.1 -3.3-10.6c-0.6-0.1-1.3-0.1-1.9-0.1 -2.3 0-4.7 0.4-6.9 1 -4 1.2-7 3.2-8.8 5.6 -1.6 2.1-2.1 4.5-1.4 6.8 2.5 8 11.8 8.9 22.5 10.1 13.9 1.5 31.3 3.3 37.3 22.7 6.5 21-3.8 36.3-29.8 44.4C118 422.1 107.4 423.8 98.6 423.8z"/><path class="st11" d="M131.1 311.6c0.7 0 1.3 0 1.9 0 2 6.4 4.2 17.7 4.6 24.7 -3.3 1-8.6 1.7-12.9 1.7 -1.4 0-2.6-0.1-3.7-0.2l-3.3-10.6c-1-0.1-2-0.2-3.1-0.2 -2.6 0-5.1 0.4-7.3 1.1 -8.9 2.8-12.9 8.7-11.2 14.3 6.3 20.2 49.6-0.1 59.8 32.8 7.3 23.6-8.1 36.1-28.8 42.5 -8.4 2.6-19 4.6-28.6 4.6 -1.1 0-2.3 0-3.4-0.1 -2.3-7.3-5.1-19.6-5.9-27.1 4.1-1.3 12-2.8 16.8-2.8 0.2 0 0.4 0 0.6 0l4.2 13.6c0.8 0 1.7 0 2.5 0 4.3 0 8.6-0.4 12.7-1.7 10-3.1 14.7-9.5 12.2-17.5 -6.5-21-49.6 1.5-60.8-34.4 -5-16.1 4.8-30.1 26.1-36.7C111.5 313.2 122.4 311.6 131.1 311.6M131.1 308.6c-9 0-20.2 1.6-28.4 4.2 -11.1 3.4-19.5 8.9-24.5 15.9 -5.1 7.2-6.4 15.7-3.6 24.5 6.9 22.3 25.2 24 39.8 25.4 11.6 1.1 18.8 2.1 20.9 9 0.9 3 0.6 5.7-1 8 -1.7 2.5-4.9 4.5-9.2 5.8 -3.4 1.1-7.3 1.6-11.9 1.6 -0.1 0-0.2 0-0.3 0l-3.6-11.5 -0.6-2 -2.1-0.1c-0.2 0-0.5 0-0.7 0 -4.9 0-13.1 1.5-17.7 2.9L86 393l0.3 2.5c0.9 8 3.9 20.6 6 27.6l0.6 2 2.1 0.1c1.1 0.1 2.3 0.1 3.6 0.1 9 0 19.7-1.7 29.5-4.8 34.1-10.6 35.5-31 30.8-46.3 -6.3-20.3-24.2-22.2-38.6-23.7 -11.8-1.3-19.2-2.4-21.3-9 -0.7-2.3 0.2-4.3 1.1-5.5 1.6-2.1 4.4-3.9 8.1-5 2-0.6 4.3-1 6.4-1 0.3 0 0.5 0 0.8 0l2.7 8.7 0.6 1.8 1.9 0.3c1.2 0.2 2.6 0.2 4.1 0.2 4.6 0 10.2-0.8 13.8-1.9l2.2-0.7 -0.1-2.3c-0.4-7-2.6-18.4-4.7-25.4l-0.6-2 -2.1-0.1C132.5 308.6 131.8 308.6 131.1 308.6L131.1 308.6z"/></g><g><path class="st10" d="M173 434.5c-0.2-3.2 0-8.2 0.7-10.9l0.1-0.4 0.3-0.3c1.6-1.8 4.5-3.5 6.9-4.9l-10.6-69.3 -10 1.5 -0.2-1.5c-0.5-4.2 0.2-10.6 1.5-13.9l0.2-0.4 0.4-0.3c3.3-2.3 8.8-4.3 14.3-5.2 1.8-0.3 3.7-0.4 5.5-0.4 1.4 0 3.4 0.1 4.9 0.5l0.9 0.3 1.5 9.7c3.3-9.4 9.7-14.6 19.4-16.1 1.4-0.2 2.9-0.3 4.3-0.3 15.2 0 26 11.4 28.9 30.5 3.7 24.6-7.6 42.6-28.8 45.8 -1.5 0.2-3.1 0.4-4.5 0.4 -2.6 0-5-0.4-7.2-1.1l2.5 16.3c0.4 0 0.7 0 1.1 0 3.7 0 8.6 0.3 11.5 1l0.6 0.2 0.3 0.6c1.4 2.4 2.6 8.5 2.7 11.4l0 1.3 -47 7.2L173 434.5zM198.6 382.9c1.3 0.4 2.8 0.5 4.3 0.5 0 0 0 0 0 0 0.9 0 1.8-0.1 2.7-0.2 5.5-0.8 9.3-3.3 11.4-7.4 2-3.9 2.5-9.5 1.4-16.4 -1.8-12-6-18.1-12.3-18.1 -0.6 0-1.1 0-1.7 0.1 -5.6 0.8-9.2 4.8-10.8 8.1L198.6 382.9z"/><path class="st11" d="M213 324.2c11.5 0 24.1 7.4 27.4 29.2 3.6 23.8-7.2 41-27.5 44.1 -1.5 0.2-2.9 0.3-4.3 0.3 -3.5 0-6.6-0.7-9.1-2l3.1 20.3c0.7 0 1.5 0 2.4 0 3.8 0 8.5 0.3 11.1 0.9 1.2 2.1 2.5 7.8 2.5 10.6l-44.1 6.7c-0.2-3.3 0-8 0.7-10.4 1.7-1.8 4.9-3.7 7.4-5.1l-10.9-71.8 -9.9 1.5c-0.4-3.9 0.2-10 1.4-13.2 3.1-2.2 8.3-4.1 13.6-4.9 1.7-0.3 3.6-0.4 5.3-0.4 1.7 0 3.3 0.1 4.4 0.5l1.7 10.9 2.1-0.3c2.1-6.8 6.5-14.8 18.8-16.7C210.2 324.3 211.6 324.2 213 324.2M202.9 385c1 0 2-0.1 2.9-0.2 12.4-1.9 16.2-11.5 14-25.5 -2.1-13.7-7.2-19.3-13.8-19.3 -0.6 0-1.3 0.1-1.9 0.2 -6.5 1-10.6 5.7-12.1 9.3l5.3 34.7C198.9 384.7 200.9 385 202.9 385M213 321.2c-1.5 0-3 0.1-4.5 0.3 -8.6 1.3-14.7 5.4-18.5 12.3l-0.6-3.7 -0.3-1.9 -1.8-0.5c-1.3-0.4-3.1-0.6-5.3-0.6 -1.9 0-3.9 0.2-5.8 0.4 -5.7 0.9-11.4 2.9-14.9 5.4l-0.7 0.5 -0.3 0.8c-1.4 3.5-2.1 10.2-1.6 14.6l0.4 3.1 3.1-0.5 7-1.1 10.2 66.8c-2.3 1.3-4.7 2.9-6.3 4.6l-0.5 0.5 -0.2 0.7c-0.8 2.9-1 8-0.8 11.4l0.2 3.3 3.2-0.5 44.1-6.7 2.6-0.4 0-2.6c0-3.1-1.3-9.4-2.8-12.1l-0.6-1.1 -1.3-0.3c-3.1-0.7-8.2-1-11.7-1l-1.9-12.8c1.7 0.4 3.5 0.5 5.4 0.5 1.5 0 3.1-0.1 4.7-0.4 10.9-1.7 19.5-7.1 24.9-15.7 5.3-8.4 7.1-19.5 5.2-31.9 -1.6-10.7-5.5-19-11.6-24.5C226.6 323.7 220.1 321.2 213 321.2L213 321.2zM195.1 349.8c1.5-2.8 4.7-6.1 9.5-6.8 0.5-0.1 1-0.1 1.5-0.1 5.5 0 9.1 5.6 10.8 16.8 1.3 8.5 1.5 20.1-11.5 22.1 -0.8 0.1-1.6 0.2-2.5 0.2 -1 0-2-0.1-3-0.3L195.1 349.8 195.1 349.8z"/></g><g><path class="st10" d="M248.9 390.5c0.1-3.2 0.9-8.1 1.9-10.7l0.1-0.4 0.3-0.2c1.9-1.6 4.9-3 7.4-4.1l-2.8-70.4 -9.8 0.4 0-1.6c0-4.2 1.4-10.5 3-13.6l0.2-0.4 0.4-0.2c3.8-1.9 10.2-3.3 16.3-3.6 0.5 0 1 0 1.6 0 3 0 7.5 0.3 9.9 1.2l0.9 0.3 3.4 87.5c3.1 0.4 7 1.2 9.1 2.1l0.6 0.3 0.2 0.7c0.6 1.9 1 5.5 1.1 8.2 0 1.1 0.1 2.2 0 3.3l-0.1 1.3 -43.9 1.7L248.9 390.5z"/><path class="st11" d="M267.5 287.1c3.3 0 7.3 0.4 9.4 1.1l3.4 87.8c2.9 0.3 7.6 1.1 10 2.1 0.5 1.5 0.9 4.8 1 7.8 0 1.1 0.1 2.1 0 3.1l-41 1.6c0.1-3.4 0.9-8 1.8-10.3 1.9-1.6 5.2-3.1 7.9-4.2l-2.9-73 -9.8 0.4c0-3.9 1.3-10 2.8-12.9 3.6-1.8 9.6-3.2 15.6-3.4C266.5 287.1 267 287.1 267.5 287.1M267.5 284.1c-0.6 0-1.1 0-1.6 0 -6.4 0.2-12.9 1.7-16.9 3.7l-0.9 0.4 -0.4 0.9c-1.8 3.4-3.2 9.8-3.2 14.3l0 3.1 3.1-0.1 6.8-0.3 2.7 67.9c-3 1.3-5.3 2.6-6.8 3.9l-0.6 0.5 -0.3 0.7c-1.1 2.8-1.9 7.9-2 11.2l-0.1 3.3 3.3-0.1 41-1.6 2.6-0.1 0.3-2.6c0.1-1.2 0.1-2.3 0-3.5 -0.1-2.8-0.5-6.6-1.1-8.6l-0.4-1.3 -1.3-0.5c-2.2-0.9-5.6-1.6-8.3-2l-3.3-85.2 -0.1-2 -1.9-0.7C275.3 284.4 270.9 284.1 267.5 284.1L267.5 284.1z"/></g><g><path class="st10" d="M347.2 395.3c-1.1 0-2.2 0-3.2-0.1l-0.4 0 -0.3-0.2c-2.8-1.6-5.2-5.2-6.3-9.6 -4.5 5.4-10.6 8.1-18.8 8.1 -0.8 0-1.7 0-2.6-0.1 -5.7-0.4-10.8-2.7-14.5-6.5 -4.1-4.3-6.1-10.2-5.6-17.1 0.9-14 11.8-22.8 28.4-22.8 1 0 2 0 3.1 0.1 3.3 0.2 6.8 1 9.8 2.2l0.2-3c0.4-6.2-2.6-9-10.2-9.5 -0.5 0-1 0-1.5 0 -6.1 0-15.7 2-20.7 4.3l-1.8 0.8 -0.3-1.9c-0.2-1.2-0.4-3.9-0.3-5.3 0.3-4.7 1.9-10.2 3.8-13.4l0.3-0.5 0.5-0.2c4.3-1.3 12.7-2.2 20.5-2.2 1.9 0 3.7 0.1 5.4 0.2 19.5 1.3 28.1 10.1 27 27.7l-1.5 23.4c-0.3 3.9 0.2 7 0.8 8.9 0.2 0 0.4 0 0.7 0 2.3 0 5.2-0.2 7.1-0.6l1.6-0.3 0.1 1.6c0.1 1.1 0 1.9 0 2.4 -0.2 3.1-1.4 6.8-3.2 9.8l-0.2 0.4 -0.4 0.2C361.1 394 353.9 395.3 347.2 395.3zM328.8 361.3c-6.1 0-9.7 2.7-10 7.7 -0.2 2.5 0.4 4.5 1.7 5.9 1.2 1.2 2.9 2 4.9 2.1 0.3 0 0.7 0 1 0 4.3 0 7.3-1.8 9.2-3.5l0.7-11.3c-2.1-0.5-4.6-0.9-6.1-1C329.7 361.3 329.3 361.3 328.8 361.3z"/><path class="st11" d="M327.4 319.9c1.8 0 3.6 0.1 5.3 0.2 17.5 1.1 26.7 8.4 25.6 26.1l-1.5 23.4c-0.3 4.3 0.3 8.3 1.3 10.4 0.5 0 1.1 0 1.7 0 2.5 0 5.5-0.3 7.4-0.6 0.1 1 0 1.7 0 2.2 -0.2 3.1-1.4 6.5-3 9.2 -3.4 1.7-10.3 3-16.9 3 -1 0-2.1 0-3.1-0.1 -3-1.7-5.2-5.9-6-10.4l-1.3-0.1c-3.9 5.5-9.7 8.8-18.6 8.8 -0.8 0-1.7 0-2.5-0.1 -10.2-0.7-19.6-8.1-18.7-22 0.9-14.4 12.6-21.4 26.9-21.4 1 0 2 0 3 0.1 4 0.3 8 1.4 11.3 3l0.3-5.1c0.5-7.2-3.5-10.6-11.6-11.1 -0.5 0-1 0-1.6 0 -6.5 0-16.4 2.2-21.3 4.4 -0.2-1.1-0.3-3.7-0.2-4.9 0.3-4.7 1.9-9.9 3.6-12.8C311.6 320.8 319.9 319.9 327.4 319.9M326.4 378.6c4.9 0 8.4-2.1 10.6-4.3l0.8-13.1c-2.5-0.7-5.8-1.2-7.6-1.3 -0.5 0-1 0-1.5 0 -7.1 0-11.2 3.5-11.5 9.1 -0.4 6.3 3.4 9.3 8 9.6C325.7 378.6 326.1 378.6 326.4 378.6M327.4 316.9c-8 0-16.4 0.9-20.9 2.3l-1.1 0.3 -0.6 1c-2.1 3.4-3.7 9.2-4.1 14.1 -0.1 1.4 0 4.2 0.3 5.6l0.7 3.8 3.5-1.6c4.3-2 13.8-4.2 20.1-4.2 0.5 0 1 0 1.4 0 5.7 0.4 9.2 1.8 8.8 7.9l-0.1 1c-2.7-0.9-5.5-1.4-8.3-1.6 -1.1-0.1-2.1-0.1-3.2-0.1 -17.5 0-28.9 9.3-29.9 24.2 -0.5 7.3 1.6 13.6 6 18.2 3.9 4.1 9.4 6.6 15.5 7 0.9 0.1 1.8 0.1 2.7 0.1 7.6 0 13.6-2.2 18.2-6.7 1.4 3.6 3.6 6.5 6.2 8l0.6 0.4 0.7 0c1.1 0.1 2.2 0.1 3.3 0.1 7 0 14.4-1.3 18.3-3.3l0.8-0.4 0.4-0.8c1.9-3.3 3.2-7.1 3.4-10.5 0-0.6 0.1-1.5 0-2.7l-0.3-3.3 -3.2 0.5c-1.7 0.3-4.3 0.5-6.4 0.5 -0.4-1.8-0.7-4.3-0.5-7.3l1.5-23.4c1.2-18.4-8.1-28-28.4-29.3C331.1 317 329.3 316.9 327.4 316.9L327.4 316.9zM326.4 375.6c-0.3 0-0.6 0-0.9 0 -1.2-0.1-2.8-0.4-3.9-1.6 -1-1.1-1.5-2.7-1.3-4.8 0.2-2.9 1.8-6.3 8.5-6.3 0.4 0 0.9 0 1.3 0 1.2 0.1 3 0.3 4.6 0.7l-0.6 9.3C332.5 374.2 330 375.6 326.4 375.6L326.4 375.6z"/></g><g><path class="st10" d="M404.6 403.4c-3 0-6.2-0.3-9.6-1 -10.3-1.9-18.3-5.3-24.3-10.2l-0.5-0.4 0-0.7c0-2.4 0.2-5.2 0.7-7.8 0.8-4.5 2.3-9 3.7-11.8l0.5-1 1.1 0.2c6.6 1.2 11.6 2.9 15.8 5.3l0.9 0.5 -1.4 7.7c2 1.5 4.9 2.8 7.4 3.2 0.9 0.2 1.8 0.3 2.5 0.3 2.9 0 4.3-1.2 4.9-3.9 0.7-3.8-3.1-6.2-9.3-9.8 -8.6-5-20.4-11.8-17.2-28.8 2.1-11 11.1-17.5 24.1-17.5 2.7 0 5.6 0.3 8.5 0.8 8.4 1.6 16.3 4.8 22.7 9.2l0.7 0.5 -0.1 0.9c-0.2 1.9-0.4 3.6-0.7 5 -0.9 4.7-2.4 9.6-4 12.7l-0.5 1 -1.1-0.2c-5.5-1-11.8-3.5-15.6-6.2L413 351l1.2-6.2c-1.3-0.9-2.9-1.5-4.4-1.8 -0.8-0.1-1.5-0.2-2.1-0.2 -2.6 0-4 1.1-4.5 3.7 -0.8 4.4 3.1 7 9.7 10.8 8.7 5.1 19.5 11.4 16.5 27.2C427 396.9 418.4 403.4 404.6 403.4z"/><path class="st11" d="M403.8 329.3c2.6 0 5.3 0.3 8.2 0.8 7.5 1.4 15.4 4.3 22.1 9 -0.1 1.4-0.3 3.2-0.6 4.8 -0.8 4.4-2.3 9.2-3.9 12.3 -5.8-1.1-11.7-3.6-15-6l1.2-6.2c-1.4-1.1-3.4-2.2-5.7-2.6 -0.9-0.2-1.7-0.2-2.4-0.2 -3.3 0-5.4 1.7-6 4.9 -2.5 13.4 31 12.5 26.2 38 -2.5 13-11.9 17.8-23.2 17.8 -3 0-6.1-0.3-9.3-0.9 -9.2-1.7-17.3-4.7-23.7-9.9 0-2.1 0.2-4.8 0.7-7.5 0.8-4.4 2.2-8.8 3.6-11.4 5.8 1.1 10.9 2.6 15.3 5.2l-1.4 7.5c2.2 1.8 5.7 3.5 8.7 4.1 1 0.2 1.9 0.3 2.8 0.3 3.5 0 5.7-1.6 6.3-5.1 2.4-12.5-31.5-11.8-26.5-38.6C383.1 335.5 391.4 329.3 403.8 329.3M403.8 326.3c-13.8 0-23.4 7-25.6 18.7 -3.4 18.1 8.9 25.2 17.9 30.4 6.2 3.6 9.1 5.6 8.5 8.2 -0.3 1.7-1 2.6-3.4 2.6 -0.7 0-1.4-0.1-2.3-0.2 -1.9-0.4-4.2-1.3-6-2.4l1.1-5.7 0.4-2.1 -1.9-1.1c-4.4-2.5-9.5-4.2-16.3-5.5l-2.2-0.4 -1 2c-1.5 2.9-3 7.6-3.8 12.2 -0.5 2.7-0.8 5.6-0.8 8.1l0 1.4 1.1 0.9c6.2 5.1 14.4 8.5 25 10.5 3.5 0.7 6.8 1 9.8 1 14.4 0 23.7-7.2 26.2-20.2 3.2-16.8-8.6-23.7-17.2-28.8 -6.7-3.9-9.6-6-9-9.2 0.3-1.8 1.1-2.5 3-2.5 0.6 0 1.2 0.1 1.9 0.2 1 0.2 2.1 0.6 3 1.1l-0.8 4.2 -0.4 1.9 1.6 1.1c4.1 2.8 10.5 5.4 16.2 6.4l2.2 0.4 1-2c1.6-3.2 3.2-8.3 4.2-13.1 0.3-1.4 0.5-3.2 0.7-5.1l0.2-1.7 -1.4-1c-6.6-4.6-14.7-7.9-23.3-9.5C409.6 326.6 406.6 326.3 403.8 326.3L403.8 326.3z"/></g><g><path class="st10" d="M470.8 419.9l0.6-1.5c1.4-3.1 3.6-7.4 5.2-9.4l0.2-0.3 0.3-0.1c1.8-0.9 4.5-1.3 7-1.6l8.3-24.7c1.7-5 3-12-4.8-14.6 -1.3-0.4-2.7-0.7-4-0.7 -3.5 0-7.1 1.5-10.7 4.4l-9.7 28.9c2.2 1.3 5.4 3.3 7.1 5l0.5 0.5 -0.1 0.7c-0.2 2.6-1.8 8.4-3.1 11l-0.6 1.1 -40.8-13.8 0.6-1.5c1.3-3 3.7-7.3 5.6-9.3l0.3-0.3 0.4-0.1c2.3-0.8 5.6-1.1 8.3-1.2l22.5-66.8 -9.3-3.1 0.5-1.5c1.5-4 5-9.3 7.7-11.7l0.4-0.3 0.5-0.1c0.7-0.1 1.5-0.1 2.3-0.1 4.1 0 9.4 1 14.2 2.6 3.4 1.2 8.2 3.4 10.3 5.2l0.8 0.7 -7 20.9c-1.9 5.6-4.7 12.6-7.5 19 4.2-4.1 9.3-6.1 15.2-6.1 3.1 0 6.4 0.6 9.8 1.7 4.5 1.5 10.8 4.2 14.3 9.9 3.4 5.7 3.4 13.4 0.1 23.4 -3.1 9.3-7.1 20-10.6 28.2 2.6 1.4 5.8 3.6 7.6 5.2l0.6 0.5 -0.1 0.7c-0.2 1.9-1 5.2-2 8.1 -0.4 1.1-0.7 2-1.1 2.9l-0.6 1.2L470.8 419.9z"/><path class="st11" d="M465.9 310.4c3.9 0 9 0.9 13.7 2.5 3.3 1.1 7.9 3.2 9.8 4.9l-6.7 19.9c-2.2 6.5-5.6 14.9-8.8 21.7l2 0.7c4.1-4.8 9.3-7.6 15.9-7.6 2.9 0 6 0.5 9.3 1.7 11 3.7 20.4 10.6 13.4 31.4 -3.2 9.5-7.5 20.9-11.1 29.4 2.6 1.3 6.5 3.8 8.5 5.7 -0.2 1.9-0.9 5-1.9 7.8 -0.4 1.1-0.6 1.8-1.1 2.7L472.8 419c1.3-3.1 3.5-7.2 5-9.1 1.9-1 5.2-1.3 7.5-1.6l8.6-25.6c2.6-7.7 1.8-14-5.8-16.5 -1.5-0.5-3-0.7-4.5-0.7 -4.6 0-8.7 2.3-12 5.1L461.4 401c2.4 1.2 6.2 3.5 7.8 5.3 -0.2 2.3-1.7 8-2.9 10.5l-38-12.8c1.3-3.1 3.7-7.1 5.4-8.9 2.3-0.8 6.1-1 8.9-1.1l23.3-69.2 -9.2-3.1c1.4-3.7 4.7-8.8 7.3-11.1C464.4 310.4 465.1 310.4 465.9 310.4M465.9 307.4c-0.9 0-1.7 0-2.4 0.1l-1 0.1 -0.7 0.6c-2.8 2.5-6.5 8.1-8.1 12.3l-1.1 2.9 2.9 1 6.4 2.2L440.3 391c-2.7 0.1-5.6 0.4-7.7 1.2l-0.7 0.3 -0.5 0.6c-2 2.2-4.6 6.7-5.9 9.8l-1.3 3 3.1 1 38 12.8 2.4 0.8 1.2-2.3c1.5-2.9 3-8.9 3.3-11.6l0.1-1.3 -0.9-1c-1.5-1.6-4.1-3.3-6.3-4.6l9.2-27.3c3.2-2.5 6.3-3.8 9.4-3.8 1.2 0 2.4 0.2 3.5 0.6 3.5 1.2 4.4 3 4.8 4.3 0.6 2.1 0.3 4.9-0.9 8.4l-8 23.8c-2.3 0.3-4.8 0.8-6.5 1.7l-0.6 0.3 -0.4 0.5c-2 2.4-4.3 7.3-5.4 9.8l-1.3 3 3.1 1 36.2 12.2 2.5 0.8 1.2-2.3c0.5-1.1 0.9-2 1.2-3.1 1-3 1.8-6.4 2-8.4l0.1-1.5 -1.1-1c-1.7-1.6-4.4-3.4-6.8-4.8 3.3-8.1 7.1-18.2 10.1-27.1 8.2-24.2-4.8-31.7-15.3-35.2 -3.6-1.2-7.1-1.8-10.3-1.8 -4.2 0-8.1 1-11.5 3 2-4.9 3.9-9.8 5.3-13.9l6.7-19.9 0.6-1.9 -1.5-1.3c-2.6-2.2-7.9-4.5-10.8-5.5C475.6 308.4 470.2 307.4 465.9 307.4L465.9 307.4z"/></g></g></g></svg>