<svg xmlns="http://www.w3.org/2000/svg" version="1.1" x="0px" y="0px" viewBox="0 0 717 586.5" xml:space="preserve" enable-background="new 0 0 717 586.5">
  <style type="text/css">
    
	.st0{display:none;}
	.st1{opacity:0.8;fill:#ECAC00;}
	.st2{fill:#F2C528;}
	.st3{opacity:0.59;fill:#FFFFFF;}
	.st4{opacity:0.8;fill:#397603;}
	.st5{fill:#729F5D;}
	.st6{opacity:0.8;fill:#C61200;}
	.st7{fill:#D6504B;}
	.st8{fill:#231F20;fill-opacity:0.5;}
	.st9{fill:#FFFFFF;}
	.st10{fill:#032B41;stroke:#009BCA;stroke-width:3;stroke-miterlimit:10;}

  </style>
  <g id="Layer_1" class="st0">
    <image width="3104" height="1970" transform="matrix(1 0 0 1 -953.1134 -562.826)" style="display:inline;overflow:visible"/>
  </g>
  <g id="Layer_3"/>
  <g id="Layer_4">
    <g>
      <g>
        <path class="st1" d="M340.9 153.8c2.8 22.7-3.5 48.1-24.3 68.2s-42 30.2-77.5 33.2 -72.6-25-89.9-50.8 -20.1-67-6.7-86.4c0 0-1.1-5.2-4.9-1.6 -3.8 3.7-10.7 6.8-12.8-0.7s5.5-18.8 9.8-21.2 9.3 2.3 10 9.7c0.7 7.5 2 7 5.8 2.4 3.8-4.5 32.4-39 88.5-35.4S337.7 127.9 340.9 153.8z"/>
        <g>
          <path class="st2" d="M304.8 106.4c-17.3-15.7-40.1-28.5-65.8-30.3 -32.7-2.2-55.8 9.4-69.8 20C219.7 109.2 275.2 108.3 304.8 106.4z"/>
        </g>
        <path class="st3" d="M162.2 127.8c13.7-19.4 34.7-38.2 56.6-40.8 0 0 15.1 4.7 27.1 18.4 0 0-26 10.3-40.8 39.6C205 145 182.3 123.6 162.2 127.8z"/>
      </g>
      <g>
        <path class="st4" d="M569.5 123.4c0 0-30.2-27-69.3-22.8s-78.1 16.5-92.1 54.7c-14 38.2 4.7 70.7 21.7 86.6 16.9 16 62.8 49.3 109.6 11.9s51.5-89.5 32.8-122.8c0 0 3.5-1.6 7.6 3.8 4.1 5.4 14.6 1.6 7.9-11.3s-9.4-11.3-11.9-4C573.3 126.7 569.5 123.4 569.5 123.4z"/>
        <g>
          <path class="st5" d="M559.8 120.6c-10.4-7-31.3-18.4-56.8-17 17 30.6 53.7 68.4 73.8 88.1 4.3-19.8 1.9-39-5.5-54.6L559.8 120.6z"/>
        </g>
        <path class="st3" d="M550.8 131.8c0 0-22.6-24-68.8-15 0 0 7.1 22.4-0.8 34.5 0 0 36.4-10.7 53.2-0.4C534.3 150.9 547.9 138.6 550.8 131.8z"/>
      </g>
      <g>
        <path class="st6" d="M367.1 20c0 0-51.1 5.4-80.5 45.6 -29.4 40.2-51.1 87.4-27.1 133.1s70.4 55.7 99.8 53.4 99.8-17 104.4-92.8S423.6 34.7 376.4 23.9c0 0 1.5-4.6 10.1-3.9 8.5 0.8 13.9-12.4-3.9-17s-18.6-0.8-13.9 7.7S367.1 20 367.1 20z"/>
        <g>
          <path class="st7" d="M356.2 26.7c-15.4 3.8-43.9 13.8-64.3 38.9 43.2 10.1 110 7.9 145.6 5.7 -14.9-20.9-35-35.1-56-41.4L356.2 26.7z"/>
        </g>
        <path class="st3" d="M359.1 44.7c0 0-41.8 0.8-72.7 51.8 0 0 27.1 12.4 31.7 30.2 0 0 20.9-43.3 44.9-50.3C362.9 76.4 362.9 53.2 359.1 44.7z"/>
      </g>
    </g>
  </g>
  <g id="Layer_2">
    <path class="st8" d="M708.8 308.8L708.8 308.8c-0.8-5.7-3-11.3-6.6-16.6 -3.6-5.4-9-10.1-16.2-14.1 -6.7-3.7-13.4-5.8-19.9-6.1 -6-0.3-11.7 0.6-17 2.6l2.6-6.9 -4.7-5c-1.6-1.7-3.5-3.3-5.7-4.6 -2-1.2-3.9-2.1-5.8-2.8 -1.9-0.7-4.1-1.3-6.4-1.7 -1.3-0.2-2.6-0.4-3.8-0.4 -3.3-3.4-7.8-6.1-13.6-8.3 -3.1-1.2-6.7-1.9-10.5-2.3 -4.3-0.4-8.6 0-12.8 1.2 -4.3 1.3-8.4 3.5-12 6.6 -0.3 0.3-0.7 0.6-1 0.9l4-15.8 -1.3-0.3c1.5-2.1 2.6-4.6 3.3-7.4 1.6-6.5 0.4-12.9-3.5-18 -3.4-4.4-8.8-7.6-16-9.4 -7.2-1.8-13.5-1.6-18.6 0.7 -5.9 2.6-10 7.6-11.7 14.1 -0.7 2.8-0.9 5.5-0.6 8.1l-1.9-0.5 -0.7 0.9c-0.5-0.2-1.1-0.5-1.6-0.7 -2.1-0.8-4.5-1.4-7.1-1.9 -1.8-0.3-3.7-0.4-5.8-0.4 -0.1 0-0.1 0-0.2 0l0-0.6 -46.8-7.8 -3.6 6.3c-1.7-1.7-3.6-3.2-5.7-4.6 -4.9-3.2-10.9-5.1-17.7-5.5 -4.6-0.3-8.8 0-12.5 1l-44.9-3 -0.8 1.7c-0.1 0-0.3-0.1-0.4-0.1 -2.2-0.4-4.7-0.5-7.3-0.5 -1.8 0.1-3.8 0.3-5.8 0.8 -0.1 0-0.1 0-0.2 0l-0.1-0.6 -47.5 1.3 -2.5 7.2c-0.3 0.8-0.5 1.6-0.7 2.4 -3-2.2-6.4-4-10.2-5.4 -6.1-2.3-13.3-2.9-21.3-1.9 -7.6 0.9-14.2 3.2-19.7 6.7 -3.5 2.3-6.5 4.9-9.1 7.9 -0.4-0.7-0.8-1.4-1.2-2.1l-4.1-6.4 -8.8 1.9 -5.5-26 -43.9 23.8 2.6 12.2 -4.1 0.9 -0.8 5.5c-3.2-1.2-6.6-1.9-10.1-2 -4.1-0.1-8.3 0.5-12.4 1.9 -4.8 1.6-8.9 3.5-12.3 5.9l-42.1 13.7 -12.1-21.8 -84.7 46.8 1.3 7.7c0.4 2.2 1 4.5 1.8 6.7 0.8 2.1 1.7 4.1 2.6 5.9 1 1.8 2.2 3.6 3.5 5.3 1.4 1.8 3 3.5 4.7 5l5.8 5.2 4.1-2.3 16.9 30.7 -4.1 2.3 1.3 7.7c0.4 2.2 1 4.5 1.8 6.7 0.8 2.1 1.7 4.1 2.6 5.9 1 1.8 2.2 3.6 3.5 5.3 1.4 1.8 3 3.5 4.7 5l5.8 5.2 61.1-33.7c-0.6 1.6-1.1 3.2-1.5 4.9 -1.4 5.8-1.1 12.2 0.8 18.9 1.5 5.4 3.7 9.9 6.5 13.6 2 2.5 4.2 4.8 6.7 6.6 -0.8 0.6-1.5 1.1-2.2 1.7l-5.3 4.6 12.6 45 1.8 0.3 -0.1 0.9c-0.2 2.2-0.2 4.4 0 6.6 0 0.3 0.1 0.7 0.1 1 0 0-0.1 0-0.1 0 -4.9-1.9-10.3-2.8-16-2.6 -5.5 0.2-11.4 1.5-17.5 4l-51.4 20.9 0.4 7.8c0.1 2.2 0.4 4.5 1 6.9 0.5 2.2 1.2 4.3 1.9 6.1 0.8 1.9 1.7 3.8 2.9 5.7 1.2 2 2.6 3.8 4 5.5l5.2 5.8 4.4-1.8 13.2 32.5 -4.4 1.8 0.4 7.8c0.1 2.2 0.4 4.5 1 6.8 0.5 2.2 1.2 4.2 1.9 6.1 0.8 1.9 1.7 3.8 2.9 5.7 1.2 2 2.6 3.9 4.1 5.6l5.2 5.8 55.2-22.5 -0.4-7.8c-0.1-2.2-0.4-4.5-1-6.9 -0.5-2.2-1.2-4.3-1.9-6.1 -0.8-1.9-1.7-3.8-2.9-5.7 -1.2-2-2.6-3.8-4-5.5l-1.8-2.1c4.7-2.4 8.6-5.2 11.7-8.3 4.1-4.2 7.1-8.8 8.9-13.8l2.8 10.5 -4 1.1 -0.7 7.6c-0.2 2.2-0.2 4.4 0 6.6 0.2 2.2 0.6 4.2 1 6 0.5 1.8 1.2 3.8 2.1 5.8 0.9 2.1 2.1 4 3.3 5.8l4.4 6.2 54-14.5 0.1-1.5c1.4 0.4 2.8 0.7 4.2 0.9 1.7 0.2 3.4 0.3 5.2 0.3 2.2 0 4.3-0.2 6.5-0.5 4.3-0.7 8.3-2 11.7-3.8l44-7.3 0.6-3.1c2 1 4.1 1.9 6.3 2.5 3.1 0.9 6.6 1.3 10.4 1.3 1.4 0 2.8-0.1 4.2-0.2 3.7-0.3 7.4-0.9 11.1-1.9l57.5-0.5 1.9-5.2c1.8 1.4 3.8 2.7 5.9 3.8 5.7 3.1 12.4 4.9 20.1 5.5 1.6 0.1 3.2 0.2 4.8 0.2 5.7 0 11-0.8 15.8-2.5 2.9-1 5.6-2.3 8.1-3.7l1.2 6.3 56.1 10 1.7-2.9 44.3 15.4 0 0 77.6 26.9 4.9-5.9c1.4-1.7 2.7-3.5 3.7-5.6 1-1.9 1.9-3.8 2.5-5.6 0.6-1.8 1.1-3.8 1.5-5.9 0.4-2.2 0.5-4.4 0.5-6.6l-0.2-7.6 -3.8-1.3 7.3-21.2c1.6-4.7 2.3-9.3 2-13.7 -0.3-4.5-1.4-8.6-3.4-12.3l0 0c-1.9-3.7-4.6-6.9-8-9.6 -3.2-2.6-6.9-4.6-11-6 -6.6-2.3-12.5-3.1-17.9-2.5 -1.2 0.1-2.3 0.3-3.5 0.6 -0.8-1-1.6-1.9-2.6-2.8 -3.7-3.6-8.3-6.4-13.5-8.2 -4.8-1.7-9.2-2.6-13.3-2.7l-42.6-14.8 -3.3 4c-1-0.5-2.1-1-3.1-1.4 -2.1-0.8-4.5-1.5-7.1-1.9 -1.8-0.3-3.7-0.5-5.8-0.4 -0.1 0-0.1 0-0.2 0l0.1-0.6 -46.7-8.4 -3.9 6.6c-0.8 1.3-1.5 2.7-2.1 4.1 -3.5-4.1-7.8-7.5-12.8-10.2 -5.7-3-12.4-4.9-20-5.5 -7.6-0.6-14.6 0.2-20.7 2.3 -1.6 0.6-3.1 1.2-4.6 1.9l-0.2-23.6 23.7 0.9c0.3 0.1 0.6 0.2 0.8 0.3 2.2 0.7 4.3 1.3 6.4 1.6 2.1 0.3 4.3 0.4 6.7 0.3 1.8-0.1 3.5-0.3 5.1-0.6 0.4 0.2 0.8 0.5 1.2 0.7 4.1 2.3 9.2 3.8 15.7 4.7 1.6 0.2 3.3 0.3 5 0.3 1.9 0 3.8-0.1 5.8-0.4 2.3-0.3 4.6-0.8 6.8-1.5l0.1 1 51.4 13.8v0l41 11 4.4-6.2c1.3-1.8 2.4-3.7 3.4-5.8 0.9-2 1.6-3.9 2.1-5.7 0.5-1.9 0.9-3.9 1.1-6 0.2-2.2 0.2-4.4 0-6.6l-0.7-7.6 -3.9-1 5.8-21.6c1.3-4.8 1.7-9.5 1.1-13.8l0 0c-0.6-4.4-2-8.5-4.3-12.1 -2.2-3.5-5.1-6.6-8.7-9.1 -3.4-2.3-7.2-4.1-11.4-5.2 -2.4-0.6-4.6-1.1-6.8-1.4l4.2-15.5c0.9 0.2 1.7 0.4 2.6 0.6 1.7 0.3 3.4 0.5 5.1 0.5 0.3 0.3 0.7 0.6 1.1 1 3.5 3.1 8.2 5.7 14.3 8 3.1 1.1 6.6 1.9 10.6 2.3 1.1 0.1 2.2 0.2 3.3 0.2 3.2 0 6.3-0.4 9.5-1.2 1.7-0.5 3.4-1 5-1.8 1.5 4 3.7 7.9 6.6 11.6 4.1 5.3 9.8 10 16.9 14 4.3 2.4 8.7 4.5 13.2 6.3 4.5 1.8 9.2 3.4 13.9 4.5l8.2 2 12.2-22 2.6 1.4 9.8-17.6c2.2-4 4-8.6 5.3-13.5C709.3 320 709.6 314.4 708.8 308.8zM277.6 443.4c-0.9-0.3-1.8-0.6-2.7-0.8l12.6-1.7 -1.4 4.8c-0.2 0.7-0.4 1.4-0.5 2.1C283.1 445.8 280.4 444.4 277.6 443.4zM232.9 314.4c0.6 0.1 1.3 0.2 1.9 0.3 1.5 0.2 3 0.3 4.6 0.3 3.1 0 6.4-0.4 10-1.1 3.7-0.8 7.4-1.9 11-3.5 3.5-1.5 6.7-3.1 9.5-4.9l3.6-2.3c1.9 0.9 3.9 1.6 6.1 2.3 4.3 1.3 9 1.9 14 1.9 2.5 0 5.2-0.2 7.9-0.5 0.3 0 0.7-0.1 1-0.1 -0.2 0.8-0.3 1.7-0.4 2.5 -0.3 2.1-0.4 4.2-0.3 6.1 0.1 1.9 0.4 3.9 0.8 6.1 0.5 2.2 1.2 4.4 2 6.4l2.7 6.3c-3.3-3-7-5.4-11.3-7.1 -5.5-2.2-11.7-2.8-18.4-1.8 -4.5 0.6-8.6 1.8-12 3.5l-42.2 5.8 -4.3-15.5L232.9 314.4zM309.5 336.3c-0.5-0.5-1-1-1.4-1.5l3.6-0.2 0.2 4.6C311.1 338.2 310.3 337.2 309.5 336.3zM209 436.4c4.6-1.3 9.3-3.3 13.7-5.9 2.1-1.2 4.1-2.6 6-4.2 0.1 0.9 0.1 1.8 0.2 2.6 0.3 1.9 0.7 3.9 1.4 6 0.7 2.2 1.6 4.3 2.6 6.2l3.1 5.6c-0.6 0.3-1.2 0.5-1.8 0.8 -4.8 2.2-9.2 4.6-13.1 7.1l-6.1 3.9 1.1 6.4 -7.6-28.4C208.6 436.5 208.8 436.5 209 436.4zM297 423.4c0-1.2-0.1-2.4-0.3-3.4 -0.3-1.8-0.7-3.8-1.4-5.8 0 0 0-0.1 0-0.1 3.2-0.9 6.2-2.3 9-3.9 1.2-0.7 2.3-1.5 3.4-2.4 0.2 0.4 0.3 0.8 0.5 1.2l3 7 6.4-0.3L297 423.4zM356.6 413.8c-5.3 5.1-8.5 11.8-9.5 20.1l-2 0.1 -3 0 -0.1 0.2 -1.8 0.1 -1.5-19.7L356.6 413.8zM379.9 321.6c-5.1 1.2-9.9 2.7-14.2 4.4l-6.6 2.6 -1.3-27.5 13.7-0.4c0 0 0 0.1 0 0.1 -0.1 1.9-0.1 4 0.1 6.1 0.2 2.3 0.7 4.5 1.3 6.6l2.2 7.3 6.6 0.4C381.2 321.3 380.5 321.5 379.9 321.6zM512.8 317.7c-0.9 2-1.6 3.9-2.1 5.7 -0.5 1.8-0.9 3.9-1.1 6 -0.2 2.1-0.2 4.3 0 6.3 -1.8-1.2-3.8-2.2-6.1-2.9 -2.2-0.7-4.3-1.3-6.2-1.5 -2-0.3-4.2-0.4-6.6-0.3 -1.3 0.1-2.6 0.2-3.8 0.4 -3.9-2.6-8.9-4.3-15.1-5.2 -3.3-0.5-6.9-0.5-10.8 0 -4.3 0.5-8.4 1.8-12.2 3.9 -4 2.2-7.5 5.2-10.3 9 -0.7 0.9-1.3 1.8-1.8 2.8 -0.6-1.5-1.2-2.9-2-4.2 -3-5-6.8-8.9-11.4-11.6 -1.6-0.9-3.2-1.8-4.9-2.5l15 1 3.2-6.7c0.9-1.9 1.7-4.1 2.2-6.3 0.5-2.1 0.8-4.1 0.9-5.9 0.1-1.8 0.1-3.9-0.2-6 0 0 0-0.1 0-0.2 3.4-0.3 6.6-0.9 9.6-2 0.5-0.2 1-0.4 1.4-0.6l1.4 7 56.2 9.3 0.1-0.1 6 1.5C513.8 315.7 513.3 316.7 512.8 317.7z"/>
    <path class="st9" d="M703.8 300.7L703.8 300.7c-0.8-5.7-3-11.3-6.6-16.6 -3.6-5.4-9-10.1-16.2-14.1 -6.7-3.7-13.4-5.8-19.9-6.1 -6-0.3-11.7 0.6-17 2.6l2.6-6.9 -4.7-5c-1.6-1.7-3.5-3.3-5.7-4.6 -2-1.2-3.9-2.1-5.8-2.8 -1.9-0.7-4.1-1.3-6.4-1.7 -1.3-0.2-2.6-0.4-3.8-0.4 -3.3-3.4-7.8-6.1-13.6-8.3 -3.1-1.2-6.7-1.9-10.5-2.3 -4.3-0.4-8.6 0-12.8 1.2 -4.3 1.3-8.4 3.5-12 6.6 -0.3 0.3-0.7 0.6-1 0.9l4-15.8 -1.3-0.3c1.5-2.1 2.6-4.6 3.3-7.4 1.6-6.5 0.4-12.9-3.5-18 -3.4-4.4-8.8-7.6-16-9.4 -7.2-1.8-13.5-1.6-18.6 0.7 -5.9 2.6-10 7.6-11.7 14.1 -0.7 2.8-0.9 5.5-0.6 8.1l-1.9-0.5 -0.7 0.9c-0.5-0.2-1.1-0.5-1.6-0.7 -2.1-0.8-4.5-1.4-7.1-1.9 -1.8-0.3-3.7-0.4-5.8-0.4 -0.1 0-0.1 0-0.2 0l0-0.6 -46.8-7.8 -3.6 6.3c-1.7-1.7-3.6-3.2-5.7-4.6 -4.9-3.2-10.9-5.1-17.7-5.5 -4.6-0.3-8.8 0-12.5 1l-44.9-3 -0.8 1.7c-0.1 0-0.3-0.1-0.4-0.1 -2.2-0.4-4.7-0.5-7.3-0.5 -1.8 0.1-3.8 0.3-5.8 0.8 -0.1 0-0.1 0-0.2 0l-0.1-0.6 -47.5 1.3 -2.5 7.2c-0.3 0.8-0.5 1.6-0.7 2.4 -3-2.2-6.4-4-10.2-5.4 -6.1-2.3-13.3-2.9-21.3-1.9 -7.6 0.9-14.2 3.2-19.7 6.7 -3.5 2.3-6.5 4.9-9.1 7.9 -0.4-0.7-0.8-1.4-1.2-2.1l-4.1-6.4 -8.8 1.9 -5.5-26 -43.9 23.8 2.6 12.2 -4.1 0.9 -0.8 5.5c-3.2-1.2-6.6-1.9-10.1-2 -4.1-0.1-8.3 0.5-12.4 1.9 -4.8 1.6-8.9 3.5-12.3 5.9l-42.1 13.7 -12.1-21.8 -84.7 46.8 1.3 7.7c0.4 2.2 1 4.5 1.8 6.7 0.8 2.1 1.7 4.1 2.6 5.9 1 1.8 2.2 3.6 3.5 5.3 1.4 1.8 3 3.5 4.7 5l5.8 5.2 4.1-2.3 16.9 30.7 -4.1 2.3 1.3 7.7c0.4 2.2 1 4.5 1.8 6.7 0.8 2.1 1.7 4.1 2.6 5.9 1 1.8 2.2 3.6 3.5 5.3 1.4 1.8 3 3.5 4.7 5l5.8 5.2 61.1-33.7c-0.6 1.6-1.1 3.2-1.5 4.9 -1.4 5.8-1.1 12.2 0.8 18.9 1.5 5.4 3.7 9.9 6.5 13.6 2 2.5 4.2 4.8 6.7 6.6 -0.8 0.6-1.5 1.1-2.2 1.7l-5.3 4.6 12.6 45 1.8 0.3 -0.1 0.9c-0.2 2.2-0.2 4.4 0 6.6 0 0.3 0.1 0.7 0.1 1 0 0-0.1 0-0.1 0 -4.9-1.9-10.3-2.8-16-2.6 -5.5 0.2-11.4 1.5-17.5 4l-51.4 20.9 0.4 7.8c0.1 2.2 0.4 4.5 1 6.9 0.5 2.2 1.2 4.3 1.9 6.1 0.8 1.9 1.7 3.8 2.9 5.7 1.2 2 2.6 3.8 4 5.5l5.2 5.8 4.4-1.8 13.2 32.5 -4.4 1.8 0.4 7.8c0.1 2.2 0.4 4.5 1 6.8 0.5 2.2 1.2 4.2 1.9 6.1 0.8 1.9 1.7 3.8 2.9 5.7 1.2 2 2.6 3.9 4.1 5.6l5.2 5.8 55.2-22.5 -0.4-7.8c-0.1-2.2-0.4-4.5-1-6.9 -0.5-2.2-1.2-4.3-1.9-6.1 -0.8-1.9-1.7-3.8-2.9-5.7 -1.2-2-2.6-3.8-4-5.5l-1.8-2.1c4.7-2.4 8.6-5.2 11.7-8.3 4.1-4.2 7.1-8.8 8.9-13.8l2.8 10.5 -4 1.1 -0.7 7.6c-0.2 2.2-0.2 4.4 0 6.6 0.2 2.2 0.6 4.2 1 6 0.5 1.8 1.2 3.8 2.1 5.8 0.9 2.1 2.1 4 3.3 5.8l4.4 6.2 54-14.5 0.1-1.5c1.4 0.4 2.8 0.7 4.2 0.9 1.7 0.2 3.4 0.3 5.2 0.3 2.2 0 4.3-0.2 6.5-0.5 4.3-0.7 8.3-2 11.7-3.8l44-7.3 0.6-3.1c2 1 4.1 1.9 6.3 2.5 3.1 0.9 6.6 1.3 10.4 1.3 1.4 0 2.8-0.1 4.2-0.2 3.7-0.3 7.4-0.9 11.1-1.9l57.5-0.5 1.9-5.2c1.8 1.4 3.8 2.7 5.9 3.8 5.7 3.1 12.4 4.9 20.1 5.5 1.6 0.1 3.2 0.2 4.8 0.2 5.7 0 11-0.8 15.8-2.5 2.9-1 5.6-2.3 8.1-3.7l1.2 6.3 56.1 10 1.7-2.9 44.3 15.4 0 0 77.6 26.9 4.9-5.9c1.4-1.7 2.7-3.5 3.7-5.6 1-1.9 1.9-3.8 2.5-5.6 0.6-1.8 1.1-3.8 1.5-5.9 0.4-2.2 0.5-4.4 0.5-6.6l-0.2-7.6 -3.8-1.3 7.3-21.2c1.6-4.7 2.3-9.3 2-13.7 -0.3-4.5-1.4-8.6-3.4-12.3l0 0c-1.9-3.7-4.6-6.9-8-9.6 -3.2-2.6-6.9-4.6-11-6 -6.6-2.3-12.5-3.1-17.9-2.5 -1.2 0.1-2.3 0.3-3.5 0.6 -0.8-1-1.6-1.9-2.6-2.8 -3.7-3.6-8.3-6.4-13.5-8.2 -4.8-1.7-9.2-2.6-13.3-2.7L537.4 440l-3.3 4c-1-0.5-2.1-1-3.1-1.4 -2.1-0.8-4.5-1.5-7.1-1.9 -1.8-0.3-3.7-0.5-5.8-0.4 -0.1 0-0.1 0-0.2 0l0.1-0.6 -46.7-8.4 -3.9 6.6c-0.8 1.3-1.5 2.7-2.1 4.1 -3.5-4.1-7.8-7.5-12.8-10.2 -5.7-3-12.4-4.9-20-5.5 -7.6-0.6-14.6 0.2-20.7 2.3 -1.6 0.6-3.1 1.2-4.6 1.9l-0.2-23.6 23.7 0.9c0.3 0.1 0.6 0.2 0.8 0.3 2.2 0.7 4.3 1.3 6.4 1.6 2.1 0.3 4.3 0.4 6.7 0.3 1.8-0.1 3.5-0.3 5.1-0.6 0.4 0.2 0.8 0.5 1.2 0.7 4.1 2.3 9.2 3.8 15.7 4.7 1.6 0.2 3.3 0.3 5 0.3 1.9 0 3.8-0.1 5.8-0.4 2.3-0.3 4.6-0.8 6.8-1.5l0.1 1 51.4 13.8v0l41 11 4.4-6.2c1.3-1.8 2.4-3.7 3.4-5.8 0.9-2 1.6-3.9 2.1-5.7 0.5-1.9 0.9-3.9 1.1-6 0.2-2.2 0.2-4.4 0-6.6l-0.7-7.6 -3.9-1 5.8-21.6c1.3-4.8 1.7-9.5 1.1-13.8l0 0c-0.6-4.4-2-8.5-4.3-12.1 -2.2-3.5-5.1-6.6-8.7-9.1 -3.4-2.3-7.2-4.1-11.4-5.2 -2.4-0.6-4.6-1.1-6.8-1.4l4.2-15.5c0.9 0.2 1.7 0.4 2.6 0.6 1.7 0.3 3.4 0.5 5.1 0.5 0.3 0.3 0.7 0.6 1.1 1 3.5 3.1 8.2 5.7 14.3 8 3.1 1.1 6.6 1.9 10.6 2.3 1.1 0.1 2.2 0.2 3.3 0.2 3.2 0 6.3-0.4 9.5-1.2 1.7-0.5 3.4-1 5-1.8 1.5 4 3.7 7.9 6.6 11.6 4.1 5.3 9.8 10 16.9 14 4.3 2.4 8.7 4.5 13.2 6.3 4.5 1.8 9.2 3.4 13.9 4.5l8.2 2 12.2-22 2.6 1.4 9.8-17.6c2.2-4 4-8.6 5.3-13.5C704.3 311.8 704.6 306.2 703.8 300.7zM272.6 435.2c-0.9-0.3-1.8-0.6-2.7-0.8l12.6-1.7 -1.4 4.8c-0.2 0.7-0.4 1.4-0.5 2.1C278.1 437.7 275.4 436.2 272.6 435.2zM227.9 306.2c0.6 0.1 1.3 0.2 1.9 0.3 1.5 0.2 3 0.3 4.6 0.3 3.1 0 6.4-0.4 10-1.1 3.7-0.8 7.4-1.9 11-3.5 3.5-1.5 6.7-3.1 9.5-4.9l3.6-2.3c1.9 0.9 3.9 1.6 6.1 2.3 4.3 1.3 9 1.9 14 1.9 2.5 0 5.2-0.2 7.9-0.5 0.3 0 0.7-0.1 1-0.1 -0.2 0.8-0.3 1.7-0.4 2.5 -0.3 2.1-0.4 4.2-0.3 6.1 0.1 1.9 0.4 3.9 0.8 6.1 0.5 2.2 1.2 4.4 2 6.4l2.7 6.3c-3.3-3-7-5.4-11.3-7.1 -5.5-2.2-11.7-2.8-18.4-1.8 -4.5 0.6-8.6 1.8-12 3.5l-42.2 5.8 -4.3-15.5L227.9 306.2zM304.5 328.1c-0.5-0.5-1-1-1.4-1.5l3.6-0.2 0.2 4.6C306.1 330 305.3 329.1 304.5 328.1zM204 428.3c4.6-1.3 9.3-3.3 13.7-5.9 2.1-1.2 4.1-2.6 6-4.2 0.1 0.9 0.1 1.8 0.2 2.6 0.3 1.9 0.7 3.9 1.4 6 0.7 2.2 1.6 4.3 2.6 6.2l3.1 5.6c-0.6 0.3-1.2 0.5-1.8 0.8 -4.8 2.2-9.2 4.6-13.1 7.1l-6.1 3.9 1.1 6.4 -7.6-28.4C203.6 428.4 203.8 428.3 204 428.3zM292 415.3c0-1.2-0.1-2.4-0.3-3.4 -0.3-1.8-0.7-3.8-1.4-5.8 0 0 0-0.1 0-0.1 3.2-0.9 6.2-2.3 9-3.9 1.2-0.7 2.3-1.5 3.4-2.4 0.2 0.4 0.3 0.8 0.5 1.2l3 7 6.4-0.3L292 415.3zM351.6 405.7c-5.3 5.1-8.5 11.8-9.5 20.1l-2 0.1 -3 0 -0.1 0.2 -1.8 0.1 -1.5-19.7L351.6 405.7zM374.9 313.5c-5.1 1.2-9.9 2.7-14.2 4.4l-6.6 2.6 -1.3-27.5 13.7-0.4c0 0 0 0.1 0 0.1 -0.1 1.9-0.1 4 0.1 6.1 0.2 2.3 0.7 4.5 1.3 6.6l2.2 7.3 6.6 0.4C376.2 313.2 375.5 313.3 374.9 313.5zM507.8 309.5c-0.9 2-1.6 3.9-2.1 5.7 -0.5 1.8-0.9 3.9-1.1 6 -0.2 2.1-0.2 4.3 0 6.3 -1.8-1.2-3.8-2.2-6.1-2.9 -2.2-0.7-4.3-1.3-6.2-1.5 -2-0.3-4.2-0.4-6.6-0.3 -1.3 0.1-2.6 0.2-3.8 0.4 -3.9-2.6-8.9-4.3-15.1-5.2 -3.3-0.5-6.9-0.5-10.8 0 -4.3 0.5-8.4 1.8-12.2 3.9 -4 2.2-7.5 5.2-10.3 9 -0.7 0.9-1.3 1.8-1.8 2.8 -0.6-1.5-1.2-2.9-2-4.2 -3-5-6.8-8.9-11.4-11.6 -1.6-0.9-3.2-1.8-4.9-2.5l15 1 3.2-6.7c0.9-1.9 1.7-4.1 2.2-6.3 0.5-2.1 0.8-4.1 0.9-5.9 0.1-1.8 0.1-3.9-0.2-6 0 0 0-0.1 0-0.2 3.4-0.3 6.6-0.9 9.6-2 0.5-0.2 1-0.4 1.4-0.6l1.4 7 56.2 9.3 0.1-0.1 6 1.5C508.8 307.5 508.3 308.5 507.8 309.5z"/>
    <g>
      <g>
        <path class="st10" d="M67.9 339l-27.6-50 -6.9 3.8c-1.2-1-2.3-2.2-3.3-3.5 -1-1.3-1.9-2.6-2.6-3.9 -0.7-1.3-1.4-2.7-2-4.3 -0.6-1.6-1-3.2-1.3-4.7l68.3-37.7 11.8 21.4c-1 1.4-2.3 2.8-3.9 4.1 -1.6 1.3-3.2 2.4-4.7 3.2 -1.5 0.8-3.3 1.6-5.3 2.3 -2 0.7-3.9 1-5.6 1.1l-2.3-4.1 -18.9 10.4 8.2 14.8 29.1-16.1c1.2 1.1 2.4 2.4 3.5 3.9 1.1 1.5 2 2.9 2.8 4.3 0.8 1.4 1.5 2.9 2.1 4.6 0.7 1.7 1.1 3.4 1.4 5l-29.1 16.1 8.7 15.8 19.6-10.8 -3.5-6.3c1-1.4 2.3-2.8 3.9-4.2s3.2-2.4 4.7-3.3c1.5-0.8 3.3-1.6 5.2-2.2 2-0.6 3.8-1 5.6-1.1l13 23.6 -69 38.1c-1.2-1-2.3-2.2-3.3-3.5 -1-1.3-1.9-2.6-2.6-3.9 -0.7-1.3-1.4-2.7-2-4.3s-1-3.2-1.3-4.7L67.9 339z"/>
        <path class="st10" d="M142.3 302.3l-11.1-34.2 -7 2.3c-0.9-1.2-1.7-2.4-2.5-3.8 -0.7-1.4-1.3-2.7-1.7-4s-0.7-2.6-0.9-4.1c-0.2-1.5-0.3-3-0.2-4.5l27.6-9 3 6.4c1.1-3.1 3-5.9 5.7-8.6 2.7-2.6 6.6-4.7 11.7-6.4 3-1 5.9-1.4 8.7-1.3 2.8 0.1 5.5 0.7 7.9 1.8 2.4 1.1 4.6 2.8 6.5 5 1.9 2.2 3.4 5 4.5 8.4l10.3 31.8 7-2.3c0.9 1.2 1.7 2.4 2.5 3.8 0.7 1.4 1.3 2.7 1.7 3.9 0.4 1.2 0.7 2.6 1 4.2 0.2 1.6 0.3 3.1 0.3 4.6l-31.5 10.3 -14-42.9c-1.7-5.2-4.3-7.2-7.8-6.1 -0.9 0.3-1.8 0.7-2.7 1.2 -0.9 0.5-1.6 1.3-2.2 2.4 -0.6 1.1-0.8 2.5-0.8 4.2 0 1.7 0.4 3.8 1.2 6.4l7.4 22.7 4.6-1.5c0.9 1.2 1.7 2.4 2.5 3.8 0.7 1.4 1.3 2.7 1.7 3.9 0.4 1.2 0.7 2.6 1 4.2 0.2 1.6 0.3 3.1 0.3 4.6l-36.1 11.7c-0.9-1.2-1.7-2.4-2.5-3.8 -0.7-1.4-1.3-2.7-1.7-4s-0.7-2.6-0.9-4.1c-0.2-1.5-0.3-3-0.2-4.5L142.3 302.3z"/>
        <path class="st10" d="M207.4 245.1l-7.4 1.6c-0.8-1.2-1.5-2.6-2.1-4.1 -0.6-1.5-1-2.8-1.3-4.1 -0.3-1.3-0.4-2.7-0.5-4.2 -0.1-1.5 0-3 0.2-4.5l7.4-1.6 -3.1-14.9 23.7-12.9 4.7 22.4 12.1-2.6c0.8 1.2 1.5 2.6 2 4 0.6 1.4 1 2.8 1.3 4.1 0.3 1.3 0.4 2.7 0.5 4.3 0.1 1.6 0 3.1-0.2 4.6l-12.1 2.6 5.9 27.7c0.4 2 1.2 3.4 2.3 4.2 1.1 0.9 2.8 1.1 5 0.6 1.6-0.3 3.1-0.8 4.5-1.5 1.4-0.6 2.8-1.4 4.3-2.4l3.8 17.8c-2.3 1.5-4.9 2.8-7.8 4.1 -3 1.2-6 2.2-9 2.8 -4.2 0.9-7.8 1.1-10.9 0.7 -3.1-0.4-5.8-1.4-8-3 -2.2-1.6-4.1-3.6-5.5-6.2 -1.4-2.6-2.5-5.6-3.3-9.2L207.4 245.1z"/>
        <path class="st10" d="M320 279.6c-4 1.6-8.1 2.9-12.4 4 -4.2 1-8.6 1.8-13.1 2.4 -6.6 0.8-12.5 0.4-17.5-1 -5-1.5-9.3-3.8-12.7-6.8 -3.5-3.1-6.2-6.7-8.2-11 -2-4.3-3.3-8.7-3.8-13.5 -0.5-4.6-0.4-9.1 0.3-13.7 0.8-4.5 2.3-8.7 4.6-12.5 2.3-3.8 5.5-7 9.6-9.7 4-2.6 9-4.3 15-5 6.4-0.8 11.8-0.3 16.2 1.3 4.4 1.7 8.1 4 11 6.9 2.9 3 5.1 6.4 6.6 10.3 1.5 3.9 2.5 7.7 2.9 11.4l1.1 9 -41 4.9c1 3.3 3.1 5.8 6.1 7.6 3.1 1.8 7.3 2.3 12.6 1.7 4.3-0.5 8-1.2 11.1-2.1 3.1-0.9 6.2-1.9 9.2-3.1L320 279.6zM294.3 240.8c-0.5-4.6-1.8-7.6-3.7-9.1 -1.9-1.5-4.1-2.1-6.5-1.8 -2.4 0.3-4.3 1.4-5.8 3.4 -1.5 2-2.1 5.2-1.9 9.7L294.3 240.8z"/>
        <path class="st10" d="M332 263.4l-1-36 -7.3 0.2c-0.6-1.4-1-2.8-1.3-4.4 -0.3-1.6-0.5-3-0.5-4.3s0.1-2.7 0.3-4.2c0.2-1.5 0.6-3 1-4.4l29.8-0.8 1.2 10.5c1-2.2 2.1-4 3.4-5.4 1.3-1.4 2.5-2.5 3.9-3.4 1.3-0.8 2.6-1.4 4-1.7 1.3-0.3 2.6-0.5 3.7-0.5 1.9-0.1 3.6 0 5.1 0.3 1.5 0.3 3.2 0.8 5 1.5l-2 20.3c-1.6-0.5-3-0.8-4.4-1.1 -1.4-0.3-2.8-0.4-4.2-0.3 -3.6 0.1-6.5 1.3-8.6 3.5 -2.1 2.2-3 5.4-2.9 9.6l0.6 19.9 8.7-0.2c0.6 1.4 1 2.8 1.3 4.3 0.3 1.5 0.5 2.9 0.5 4.2 0 1.3-0.1 2.7-0.3 4.3s-0.6 3.1-1 4.5l-41.7 1.2c-0.6-1.4-1-2.8-1.3-4.4 -0.3-1.6-0.5-3-0.5-4.3 0-1.3 0.1-2.7 0.3-4.2 0.2-1.5 0.6-3 1-4.4L332 263.4z"/>
        <path class="st10" d="M386.1 283.6l3.9-57.5 -7-0.5c-0.4-1.4-0.7-2.9-0.9-4.5 -0.2-1.6-0.2-3-0.1-4.3 0.1-1.3 0.3-2.7 0.7-4.2 0.4-1.5 0.8-2.9 1.5-4.3l29.7 2 0.7 7.3c1.7-2.5 4.2-4.5 7.3-6 3.1-1.5 7.2-2.1 12.1-1.8 4.9 0.3 9.1 1.6 12.4 3.8 3.3 2.2 5.9 4.9 7.9 8.2 1.9 3.3 3.2 7 3.9 11 0.7 4 0.9 8.1 0.6 12.2 -0.4 5.9-1.4 11-3.1 15.4 -1.6 4.4-3.8 8-6.5 10.8s-5.7 4.8-9.2 6.1c-3.5 1.2-7.3 1.7-11.4 1.4 -3.9-0.3-7.1-1-9.6-2.3 -2.5-1.3-4.6-2.8-6.2-4.5l-0.9 14.1 10.5 0.7c0.4 1.3 0.7 2.7 0.9 4.2 0.2 1.5 0.2 2.8 0.1 4 -0.1 1.2-0.3 2.6-0.7 4.1 -0.4 1.5-0.8 2.9-1.5 4.1l-43.2-2.9c-0.4-1.4-0.7-2.9-0.9-4.5 -0.2-1.6-0.2-3-0.1-4.3 0.1-1.3 0.3-2.7 0.7-4.2 0.4-1.5 0.8-2.9 1.5-4.3L386.1 283.6zM422.2 258.1c3 0.2 5.4-0.7 7.2-2.8 1.7-2.1 2.8-5.8 3.2-11.1 0.4-5.3-0.2-9.1-1.6-11.4 -1.5-2.3-3.7-3.6-6.7-3.8 -3-0.2-5.4 0.7-7 2.9 -1.7 2.1-2.7 5.8-3 11.1 -0.4 5.3 0.2 9.1 1.5 11.4C417 256.7 419.2 257.9 422.2 258.1z"/>
        <path class="st10" d="M465.8 268.6l5.9-35.5 -7.2-1.2c-0.3-1.5-0.4-3-0.4-4.6 0-1.6 0.1-3 0.3-4.3s0.6-2.6 1.1-4.1c0.5-1.5 1.1-2.8 1.9-4.1l29.4 4.9 -0.8 10.5c1.4-2 2.8-3.5 4.3-4.7 1.5-1.2 3-2 4.4-2.6 1.5-0.5 2.9-0.8 4.2-0.9 1.4 0 2.6 0 3.7 0.2 1.9 0.3 3.5 0.7 5 1.3 1.4 0.5 3 1.4 4.7 2.4l-5.9 19.6c-1.5-0.8-2.8-1.4-4.1-1.9 -1.3-0.5-2.6-0.9-4.1-1.1 -3.6-0.6-6.6 0-9.1 1.8 -2.5 1.8-4 4.7-4.7 8.8l-3.3 19.6 8.6 1.4c0.3 1.5 0.4 3 0.4 4.5 0 1.5-0.1 2.9-0.3 4.2s-0.6 2.7-1.1 4.2c-0.5 1.5-1.1 2.9-1.9 4.2l-41.2-6.8c-0.3-1.5-0.4-3-0.4-4.6 0-1.6 0.1-3 0.3-4.3 0.2-1.3 0.6-2.6 1.1-4.1 0.5-1.5 1.1-2.8 1.9-4.1L465.8 268.6z"/>
        <path class="st10" d="M522.5 279.1l8.8-34.9 -7.2-1.8c-0.2-1.5-0.2-3 0-4.6 0.1-1.6 0.4-3 0.7-4.3 0.3-1.3 0.8-2.6 1.4-4 0.6-1.4 1.4-2.7 2.2-3.9l32.1 8.1 -13.1 51.7 7.2 1.8c0.2 1.5 0.2 3 0.1 4.5 -0.1 1.5-0.3 2.9-0.7 4.2 -0.3 1.3-0.8 2.6-1.4 4.1 -0.6 1.4-1.4 2.8-2.2 4l-39.3-10c-0.2-1.5-0.2-3 0-4.6 0.1-1.6 0.4-3 0.7-4.3 0.3-1.3 0.8-2.6 1.4-4 0.6-1.4 1.4-2.7 2.2-3.9L522.5 279.1zM536.9 208.2c0.8-3.3 2.7-5.5 5.5-6.8 2.8-1.3 6.6-1.3 11.4-0.1s8.1 3 10 5.5c1.9 2.4 2.4 5.3 1.6 8.6 -0.9 3.4-2.7 5.6-5.5 6.9 -2.8 1.2-6.6 1.2-11.4 0 -4.8-1.2-8.1-3-10-5.4C536.6 214.4 536 211.5 536.9 208.2z"/>
        <path class="st10" d="M562.1 282.9c1.3-0.1 2.8-0.1 4.4 0.2 1.6 0.3 3 0.6 4.2 1.1 1.3 0.5 2.6 1.1 4 2 1.4 0.8 2.6 1.8 3.5 2.7l-0.9 2.6c-0.1 0.3-0.1 0.9 0.1 1.7 0.2 0.8 0.6 1.7 1.3 2.6 0.7 1 1.7 1.9 2.9 2.9 1.2 1 2.8 1.8 4.7 2.5 3.2 1.2 5.5 1.5 7 1.1 1.5-0.5 2.4-1.4 2.9-2.7 0.5-1.3 0.4-2.6-0.4-3.9 -0.7-1.3-1.9-2.5-3.4-3.6l-8.3-6.3c-2.1-1.6-4.1-3.3-6.1-5.1 -2-1.8-3.6-3.8-4.9-6 -1.3-2.2-2-4.6-2.3-7.4 -0.3-2.7 0.2-5.9 1.5-9.3 1.4-3.9 3.4-6.9 5.8-9 2.4-2.1 5.1-3.6 7.9-4.4 2.9-0.8 5.7-1.1 8.6-0.8 2.9 0.3 5.5 0.9 7.8 1.7 4.4 1.6 7.6 3.6 9.8 5.8 2.1 2.3 3.5 4.2 4.3 5.7l0.9-2.6c1.3-0.1 2.8-0.1 4.4 0.2 1.6 0.3 3.1 0.7 4.4 1.1 1.2 0.5 2.5 1.1 3.9 1.9 1.4 0.8 2.5 1.7 3.4 2.7l-6.9 18.5c-1.4 0.1-3 0-4.6-0.2 -1.6-0.3-3.1-0.7-4.4-1.1 -1.4-0.5-2.8-1.2-4.2-2.1 -1.4-0.9-2.7-1.8-3.7-2.8l0.6-1.6c0.5-1.5 0.4-3-0.4-4.6 -0.8-1.6-2.8-3-5.8-4.1 -2.6-1-4.6-1.1-5.9-0.5 -1.3 0.6-2.2 1.5-2.6 2.6 -0.7 1.9 0.2 3.7 2.6 5.4l8.4 6c2.4 1.7 4.7 3.5 7 5.4 2.3 1.9 4.1 4 5.6 6.4 1.5 2.4 2.4 5.1 2.8 8.1 0.4 3-0.2 6.5-1.7 10.5 -1.5 4-3.5 7-6.1 9.1 -2.6 2.1-5.4 3.5-8.3 4.3 -3 0.8-6 1-9 0.8 -3-0.3-5.6-0.8-7.8-1.6 -4.8-1.8-8.4-3.8-10.9-5.9 -2.5-2.2-4.4-4.4-5.7-6.8l-1.1 3c-1.4 0.1-3 0-4.6-0.3 -1.6-0.3-3.2-0.7-4.5-1.2 -1.3-0.5-2.7-1.1-4-2 -1.4-0.8-2.6-1.8-3.6-2.8L562.1 282.9z"/>
        <path class="st10" d="M666.9 354.5c-4.2-1-8.3-2.4-12.3-4 -4-1.6-8-3.6-12-5.7 -5.8-3.2-10.4-6.9-13.6-11.1 -3.2-4.2-5.3-8.5-6.3-13 -1-4.5-1.1-9.1-0.2-13.7 0.9-4.6 2.5-9 4.8-13.2 2.2-4 5-7.6 8.3-10.9s7-5.7 11.1-7.4c4.1-1.7 8.6-2.5 13.4-2.2 4.8 0.2 9.8 1.8 15.1 4.7 5.6 3.1 9.7 6.6 12.4 10.6 2.6 3.9 4.2 8 4.8 12 0.6 4.1 0.4 8.2-0.7 12.2 -1.1 4.1-2.5 7.7-4.3 11l-4.4 8 -36.2-20c-1.1 3.2-0.9 6.5 0.5 9.7 1.5 3.2 4.6 6.2 9.3 8.8 3.8 2.1 7.2 3.7 10.3 4.8 3.1 1.1 6.1 2.1 9.2 2.9L666.9 354.5zM668.7 307.9c2.2-4 3-7.2 2.3-9.6 -0.7-2.4-2.1-4.1-4.2-5.3 -2.1-1.2-4.4-1.4-6.7-0.6 -2.4 0.8-4.8 3-7.2 6.7L668.7 307.9z"/>
      </g>
      <g>
        <path class="st10" d="M147.1 393.1c1.2-1.1 2.7-2 4.4-2.8 1.7-0.8 3.4-1.5 5.1-2 1.7-0.5 3.5-0.8 5.5-1 2-0.2 3.8-0.1 5.4 0.1l1.2 4.4c0.3 1 1 2 2.1 3.1 1.2 1.1 2.7 1.9 4.6 2.6 1.9 0.6 4.1 1 6.7 1.1s5.5-0.3 8.6-1.2c4.6-1.3 7.7-2.9 9.2-4.8 1.5-1.9 2-4 1.3-6.4 -0.6-2-1.8-3.5-3.7-4.5 -1.9-1-4.9-1.5-8.9-1.6l-19.2-0.3c-3.3-0.1-6.6-0.4-9.6-1 -3.1-0.6-5.9-1.6-8.6-3.1 -2.6-1.5-4.9-3.6-6.9-6.1 -2-2.6-3.5-5.8-4.6-9.8 -1.4-4.9-1.6-9.4-0.6-13.5 0.9-4 2.6-7.6 4.9-10.7 2.3-3.1 5.1-5.6 8.4-7.7 3.3-2.1 6.6-3.6 9.9-4.5 6-1.7 10.9-2.1 14.7-1.3 3.8 0.8 6.7 2 8.6 3.7l-1.4-5c1.2-1.1 2.7-2 4.5-2.9 1.7-0.8 3.4-1.5 5-1.9 1.6-0.4 3.3-0.7 5.1-0.9 1.8-0.2 3.6-0.1 5.2 0.2l8 28.7c-1.2 1.1-2.7 2-4.3 2.8 -1.7 0.8-3.3 1.5-5 1.9 -1.7 0.5-3.5 0.8-5.6 1 -2.1 0.2-3.9 0.2-5.5-0.1l-0.4-1.4c-0.8-3-2.8-5.3-5.9-6.8 -3.1-1.5-7.4-1.5-12.9 0 -2.3 0.6-4.1 1.5-5.4 2.5 -1.4 1.1-2.3 2.2-2.9 3.3 -0.7 1.4-0.8 2.9-0.4 4.4 0.3 1.3 1.1 2.3 2.2 3.2 1.1 0.9 3.3 1.3 6.7 1.4l14.4 0c4.3 0.1 8.5 0.3 12.6 0.7 4.1 0.4 7.8 1.3 11.3 2.8 3.5 1.5 6.5 3.6 9.2 6.5 2.6 2.9 4.7 6.8 6.1 11.8 1.4 5.1 1.6 9.7 0.5 13.9 -1.1 4.2-2.9 7.9-5.5 11 -2.6 3.2-5.7 5.9-9.4 8 -3.7 2.1-7.4 3.7-11.1 4.8 -2.7 0.7-5.4 1.2-8 1.4 -2.7 0.2-5.2 0.2-7.6-0.1 -2.4-0.3-4.5-0.8-6.4-1.5 -1.9-0.7-3.4-1.6-4.5-2.7l1.7 6.1c-1.2 1.1-2.7 2-4.5 2.9 -1.7 0.8-3.4 1.5-5 1.9 -1.6 0.4-3.3 0.7-5.1 0.9 -1.8 0.2-3.6 0.1-5.2-0.2L147.1 393.1z"/>
        <path class="st10" d="M241.6 407.9l-7.9-57 -7 1c-0.7-1.3-1.3-2.7-1.8-4.2 -0.5-1.5-0.8-2.9-1-4.2 -0.2-1.3-0.2-2.7-0.2-4.2 0-1.5 0.2-3 0.6-4.5l29.5-4.1 2.2 7.1c1.2-2.8 3.2-5.2 5.9-7.4 2.8-2.1 6.6-3.5 11.5-4.2 4.9-0.7 9.2-0.3 12.9 1.2 3.7 1.5 6.8 3.6 9.4 6.5 2.5 2.8 4.5 6.2 6 10 1.5 3.8 2.5 7.7 3.1 11.8 0.8 5.8 0.8 11.1 0.1 15.7 -0.7 4.6-2.1 8.6-4.1 11.9 -2 3.3-4.6 5.9-7.8 7.8 -3.1 1.9-6.8 3.2-10.9 3.7 -3.9 0.5-7.2 0.4-9.9-0.3 -2.7-0.7-5.1-1.8-7-3.2l1.9 14 10.4-1.4c0.7 1.2 1.3 2.5 1.7 4 0.5 1.4 0.8 2.7 0.9 3.9 0.2 1.2 0.2 2.6 0.2 4.1 -0.1 1.5-0.2 3-0.6 4.3L237 426c-0.7-1.3-1.3-2.7-1.8-4.2s-0.8-2.9-1-4.2 -0.2-2.7-0.2-4.2c0-1.5 0.2-3 0.6-4.5L241.6 407.9zM271.8 375.6c3-0.4 5.1-1.8 6.4-4.2 1.3-2.4 1.6-6.2 0.8-11.5 -0.7-5.2-2-8.8-3.9-10.8 -1.9-2-4.3-2.7-7.3-2.3 -3 0.4-5.1 1.8-6.3 4.2 -1.2 2.4-1.4 6.2-0.7 11.5 0.7 5.2 2 8.8 3.8 10.8C266.4 375.2 268.8 376 271.8 375.6z"/>
        <path class="st10" d="M319.5 377l-3-63.9 -7.4 0.3c-0.6-1.4-1-2.8-1.4-4.4 -0.3-1.5-0.5-3-0.6-4.3s0-2.7 0.2-4.2c0.2-1.5 0.5-3 1-4.4l33.1-1.5 3.8 81.2 7.4-0.3c0.6 1.4 1 2.8 1.4 4.3 0.3 1.5 0.5 2.9 0.6 4.2s0 2.7-0.2 4.3 -0.5 3.1-1 4.5l-40.6 1.9c-0.6-1.4-1-2.8-1.4-4.4 -0.3-1.5-0.5-3-0.6-4.3 -0.1-1.3 0-2.7 0.2-4.2 0.2-1.5 0.5-3 1-4.4L319.5 377z"/>
        <path class="st10" d="M397.6 386.6c-2.1 2.7-4.7 4.8-7.9 6.2s-7 2.1-11.4 1.9c-2.9-0.1-5.6-0.6-8.3-1.5 -2.7-0.9-5-2.3-7.1-4.2 -2.1-1.9-3.7-4.3-4.9-7.2 -1.2-2.9-1.7-6.4-1.6-10.5 0.2-4.7 1.2-8.4 3.1-11.3 1.9-2.8 4.3-5 7.4-6.6 3-1.5 6.5-2.6 10.4-3.2 3.9-0.6 7.9-0.9 12.1-1.1l7.9-0.2 0.1-2.3c0.1-2.5-0.6-4.4-2.1-5.7 -1.5-1.3-4.1-2-7.8-2.2 -3.6-0.1-7.3 0.2-11 1 -3.7 0.8-8 2.2-13 4.1l0.6-17.5c3.9-1.5 8.1-2.8 12.8-4 4.7-1.1 10.3-1.6 16.8-1.3 2.4 0.1 5.3 0.4 8.7 1 3.4 0.6 6.6 1.8 9.6 3.6 3 1.8 5.5 4.4 7.6 7.8 2 3.4 3 8 2.8 13.7l-1.1 30 6.8 0.2c0.5 1.4 0.8 2.9 1 4.4 0.2 1.5 0.3 2.9 0.2 4.2 0 1.3-0.2 2.7-0.5 4.3 -0.3 1.5-0.8 3-1.3 4.4l-29.2-1.1L397.6 386.6zM397.2 362.8l-5.6 0.3c-2.1 0.1-3.8 0.4-5.2 0.9 -1.4 0.5-2.4 1.1-3.2 1.8 -0.8 0.8-1.3 1.6-1.6 2.5 -0.3 0.9-0.5 1.9-0.5 3 -0.1 2 0.4 3.6 1.5 4.7 1 1.2 2.8 1.8 5.3 1.9 2.5 0.1 4.6-0.5 6.3-1.8 1.7-1.3 2.6-3.2 2.7-5.8L397.2 362.8z"/>
        <path class="st10" d="M433.3 372.4c1.3-0.4 2.7-0.7 4.3-0.8 1.6-0.1 3 0 4.3 0.1 1.4 0.2 2.8 0.6 4.4 1.1 1.5 0.5 2.9 1.2 4 1.9l-0.4 2.7c0 0.3 0.1 0.9 0.4 1.6 0.3 0.7 0.9 1.5 1.8 2.3 0.9 0.8 2 1.5 3.4 2.2 1.4 0.7 3.1 1.2 5.2 1.5 3.3 0.5 5.7 0.3 7-0.5 1.3-0.8 2.1-1.8 2.3-3.2 0.2-1.4-0.2-2.6-1.2-3.7 -1-1.1-2.3-2-4.1-2.8l-9.5-4.4c-2.4-1.1-4.7-2.3-7-3.7 -2.3-1.3-4.3-2.9-6-4.8 -1.7-1.9-3-4.1-3.8-6.7 -0.9-2.6-1-5.8-0.5-9.5 0.6-4.1 1.8-7.5 3.8-10 1.9-2.6 4.2-4.6 6.8-6 2.6-1.4 5.4-2.3 8.2-2.6 2.9-0.3 5.5-0.3 7.9 0 4.6 0.7 8.2 1.9 10.8 3.6 2.6 1.8 4.3 3.3 5.4 4.7l0.4-2.7c1.3-0.4 2.7-0.7 4.4-0.8 1.6-0.1 3.1 0 4.5 0.2 1.3 0.2 2.7 0.5 4.2 1 1.5 0.5 2.8 1.2 3.9 1.9l-2.8 19.6c-1.4 0.4-2.9 0.7-4.5 0.7 -1.6 0.1-3.1 0-4.5-0.2 -1.5-0.2-3-0.6-4.6-1.1 -1.6-0.5-3-1.2-4.2-2l0.2-1.7c0.2-1.5-0.3-3-1.4-4.4 -1.2-1.4-3.3-2.3-6.5-2.8 -2.7-0.4-4.7-0.1-5.9 0.7s-1.8 1.9-2 3.1c-0.3 2 0.9 3.5 3.7 4.7l9.5 4.1c2.7 1.2 5.4 2.4 8 3.8 2.6 1.4 4.9 3.1 6.8 5.1 1.9 2 3.4 4.5 4.4 7.3 1 2.9 1.2 6.4 0.6 10.6 -0.6 4.2-1.9 7.6-4 10.2 -2.1 2.6-4.5 4.6-7.2 6 -2.7 1.4-5.6 2.3-8.6 2.7 -3 0.4-5.6 0.4-8 0.1 -5.1-0.7-9-1.9-11.9-3.5 -2.9-1.6-5.2-3.4-7.1-5.4l-0.5 3.2c-1.4 0.4-2.9 0.7-4.6 0.7 -1.7 0.1-3.2 0-4.7-0.2 -1.4-0.2-2.8-0.6-4.4-1.1 -1.5-0.5-2.9-1.2-4.1-2L433.3 372.4z"/>
        <path class="st10" d="M505.5 388.8l16.6-61.8 -7.2-1.9c-0.1-1.5-0.1-3 0-4.6 0.2-1.6 0.4-3 0.7-4.2 0.3-1.3 0.8-2.6 1.5-4 0.6-1.4 1.4-2.7 2.3-3.9l32 8.6 -8.2 30.5c2.4-1.2 5.1-1.8 8.1-2 3.1-0.2 6.6 0.3 10.6 1.4 3 0.8 5.7 2 8 3.6 2.3 1.6 4.2 3.6 5.6 5.8 1.4 2.3 2.3 4.8 2.7 7.7 0.4 2.9 0.1 6-0.8 9.5l-8.7 32.3 7.2 1.9c0.1 1.5 0.1 3 0 4.5 -0.1 1.5-0.4 2.9-0.7 4.2 -0.3 1.3-0.8 2.6-1.5 4 -0.7 1.4-1.4 2.8-2.3 4l-32-8.6 11.7-43.6c1.4-5.3 0.3-8.4-3.3-9.4 -0.9-0.2-1.9-0.4-2.9-0.4 -1 0-2.1 0.2-3.1 0.8 -1.1 0.6-2.1 1.6-3 3 -0.9 1.4-1.7 3.4-2.4 6l-6.2 23.1 4.6 1.2c0.1 1.5 0.1 3 0 4.5 -0.1 1.5-0.4 2.9-0.7 4.2 -0.3 1.3-0.8 2.6-1.5 4 -0.7 1.4-1.4 2.8-2.3 4l-36.7-9.9c-0.1-1.5-0.1-3 0-4.6s0.4-3 0.7-4.2c0.3-1.3 0.8-2.6 1.5-4 0.6-1.4 1.4-2.7 2.3-3.9L505.5 388.8z"/>
      </g>
      <g>
        <path class="st10" d="M111.3 540l-21.5-52.8 -7.3 3c-1-1.2-2-2.5-2.8-3.9 -0.9-1.4-1.6-2.8-2.1-4.2 -0.6-1.4-1-2.9-1.4-4.5s-0.6-3.3-0.7-4.8l44.2-18c4.9-2 9.5-3.1 13.7-3.2 4.2-0.1 8.1 0.5 11.6 1.9s6.6 3.5 9.2 6.2c2.6 2.8 4.7 6.1 6.3 9.9 1.3 3.2 2.2 6.7 2.5 10.3 0.4 3.7-0.1 7.3-1.3 10.9 -1.2 3.6-3.4 7-6.6 10.2 -3.1 3.2-7.6 6-13.3 8.3l-13 5.3 6.4 15.8 9.6-3.9c1 1.2 2 2.5 2.9 3.9 0.9 1.4 1.6 2.8 2.1 4.2 0.6 1.4 1 2.9 1.4 4.5 0.4 1.7 0.6 3.3 0.7 4.8l-40.8 16.6c-1-1.2-2-2.5-2.9-4s-1.6-2.9-2.2-4.2c-0.6-1.4-1-2.9-1.4-4.5 -0.4-1.6-0.6-3.2-0.7-4.8L111.3 540zM129.8 493.7c3.1-1.3 5.3-3 6.5-5.3 1.2-2.3 1-5.2-0.4-8.8 -1.3-3.3-3.2-5.3-5.6-6.1 -2.4-0.8-5.1-0.6-8 0.6l-8.5 3.5 7.9 19.5L129.8 493.7z"/>
        <path class="st10" d="M188.1 513.2l-16.6-61.8 -7.2 1.9c-0.9-1.2-1.6-2.5-2.3-4 -0.7-1.4-1.2-2.8-1.5-4 -0.3-1.3-0.6-2.6-0.7-4.2 -0.1-1.5-0.1-3 0-4.5l32-8.6 21.1 78.5 7.2-1.9c0.9 1.2 1.6 2.5 2.3 3.9 0.6 1.4 1.1 2.7 1.5 4 0.3 1.3 0.6 2.7 0.7 4.2s0.2 3.1 0 4.6l-39.3 10.6c-0.9-1.2-1.6-2.5-2.3-4 -0.7-1.4-1.2-2.8-1.5-4 -0.3-1.3-0.6-2.6-0.7-4.2 -0.1-1.5-0.1-3 0-4.5L188.1 513.2z"/>
        <path class="st10" d="M266.3 506.4c-1.5 3.1-3.7 5.6-6.5 7.7s-6.4 3.4-10.8 4.2c-2.8 0.5-5.6 0.5-8.4 0.1 -2.8-0.4-5.4-1.3-7.8-2.7 -2.4-1.4-4.5-3.5-6.3-6.1 -1.8-2.6-3-5.9-3.6-9.9 -0.8-4.6-0.5-8.5 0.8-11.7 1.3-3.2 3.3-5.8 5.9-7.9 2.7-2.1 5.9-3.8 9.5-5.2 3.7-1.4 7.6-2.5 11.6-3.4l7.7-1.8 -0.4-2.3c-0.4-2.5-1.5-4.2-3.2-5.2 -1.7-1-4.4-1.2-8.1-0.6 -3.6 0.6-7.1 1.7-10.5 3.2 -3.4 1.5-7.4 3.7-12 6.6l-2.9-17.3c3.5-2.2 7.4-4.4 11.8-6.4 4.4-2 9.7-3.6 16.2-4.7 2.4-0.4 5.3-0.6 8.8-0.7 3.5-0.1 6.8 0.4 10.2 1.6 3.3 1.2 6.3 3.2 9 6.2 2.7 2.9 4.5 7.2 5.4 12.9l4.9 29.6 6.7-1.1c0.7 1.3 1.4 2.7 1.9 4.1 0.5 1.5 0.9 2.8 1.1 4.1 0.2 1.3 0.3 2.7 0.3 4.3 0 1.6-0.1 3.1-0.4 4.6l-28.9 4.8L266.3 506.4zM261.1 483.2l-5.4 1.4c-2 0.5-3.7 1.1-4.9 1.9 -1.2 0.7-2.2 1.5-2.8 2.4 -0.6 0.9-0.9 1.8-1 2.8 -0.1 1-0.1 2 0.1 3 0.3 2 1.1 3.4 2.4 4.4 1.3 0.9 3.1 1.2 5.6 0.8 2.5-0.4 4.4-1.4 5.8-3 1.4-1.6 1.9-3.7 1.5-6.2L261.1 483.2z"/>
        <path class="st10" d="M299.9 455.4l-7.5 0.6c-0.6-1.3-1.1-2.8-1.5-4.3 -0.4-1.5-0.6-3-0.7-4.2 -0.1-1.3-0.1-2.7 0.1-4.2 0.1-1.5 0.4-3 0.8-4.4l7.5-0.6 -1.1-15.2 25.2-9.6 1.7 22.8 12.3-0.9c0.6 1.3 1.1 2.8 1.5 4.3 0.4 1.5 0.6 2.9 0.7 4.2 0.1 1.3 0.1 2.7-0.1 4.3 -0.1 1.6-0.4 3.1-0.8 4.5l-12.3 0.9 2.1 28.3c0.1 2 0.7 3.5 1.7 4.5 1 1 2.6 1.4 4.9 1.3 1.6-0.1 3.2-0.4 4.6-0.9 1.4-0.5 3-1 4.6-1.8l1.3 18.2c-2.4 1.1-5.2 2.1-8.3 3 -3.1 0.8-6.2 1.4-9.3 1.6 -4.2 0.3-7.9 0.1-10.9-0.8 -3-0.8-5.5-2.2-7.5-4 -2-1.8-3.5-4.1-4.6-6.9 -1.1-2.7-1.7-5.9-2-9.6L299.9 455.4z"/>
        <path class="st10" d="M352.6 488.3l-0.3-36 -7.9 0.1c-0.5-1.4-0.9-2.9-1.2-4.4 -0.3-1.6-0.4-3-0.4-4.3 0-1.3 0.1-2.7 0.4-4.2 0.2-1.5 0.6-3 1.1-4.4l7.9-0.1 0-4.5c-0.1-8.4 2.2-14.7 6.9-19 4.6-4.2 11.2-6.4 19.7-6.5 2.8 0 5.7 0.2 8.7 0.7 3 0.5 5.7 1.1 8.1 1.9l0.2 18.2c-1.5-0.5-3-1-4.5-1.4 -1.5-0.4-3.4-0.6-5.5-0.6 -2.3 0-4.1 0.6-5.6 1.8 -1.5 1.2-2.2 3.1-2.2 5.8l0 3.4 11.7-0.1c0.5 1.4 0.9 2.8 1.2 4.3 0.3 1.5 0.4 2.9 0.4 4.2s-0.1 2.7-0.4 4.3c-0.2 1.6-0.6 3-1.1 4.4l-11.7 0.1 0.3 36 10.4-0.1c0.5 1.4 0.9 2.8 1.2 4.3 0.3 1.5 0.4 2.9 0.4 4.2s-0.1 2.7-0.4 4.3 -0.6 3-1.1 4.4l-43.3 0.4c-0.5-1.4-0.9-2.9-1.2-4.4s-0.4-3-0.4-4.3 0.1-2.7 0.4-4.2c0.2-1.5 0.6-3 1.1-4.4L352.6 488.3z"/>
        <path class="st10" d="M425.3 509.3c-6.1-0.5-11.4-1.9-15.7-4.2 -4.3-2.3-7.9-5.3-10.6-8.9 -2.7-3.6-4.6-7.7-5.8-12.3 -1.1-4.6-1.5-9.4-1.1-14.4 0.4-5 1.5-9.7 3.3-14 1.8-4.3 4.3-8.1 7.6-11.2s7.2-5.5 11.8-7.2c4.6-1.6 10-2.2 16.2-1.7 6 0.5 11.3 1.9 15.6 4.2 4.4 2.3 7.9 5.3 10.7 8.9 2.7 3.6 4.6 7.7 5.8 12.2 1.1 4.6 1.5 9.4 1.1 14.4 -0.4 5-1.5 9.7-3.3 14.1 -1.8 4.4-4.3 8.1-7.6 11.3s-7.2 5.5-11.9 7.2C436.8 509.2 431.4 509.8 425.3 509.3zM426.8 490.2c3 0.2 5.6-1.1 7.6-3.9 2-2.8 3.3-7.2 3.8-13.2s-0.1-10.5-1.7-13.6c-1.6-3.1-3.9-4.7-6.9-5 -3-0.2-5.6 1-7.6 3.8 -2 2.8-3.3 7.2-3.8 13.1 -0.5 6 0.1 10.5 1.7 13.6C421.5 488.2 423.8 489.9 426.8 490.2z"/>
        <path class="st10" d="M474 495.3l6.3-35.4 -7.2-1.3c-0.3-1.5-0.4-3-0.4-4.6 0-1.6 0.1-3 0.4-4.3 0.2-1.3 0.6-2.6 1.1-4.1 0.5-1.4 1.2-2.8 1.9-4.1l29.3 5.2 -1 10.5c1.4-1.9 2.9-3.5 4.4-4.6 1.5-1.1 3-2 4.5-2.5 1.5-0.5 2.9-0.8 4.2-0.8 1.4 0 2.6 0.1 3.7 0.3 1.9 0.3 3.5 0.8 5 1.4 1.4 0.6 3 1.4 4.6 2.5l-6.1 19.5c-1.4-0.8-2.8-1.4-4.1-2 -1.3-0.5-2.6-0.9-4.1-1.2 -3.6-0.6-6.6-0.1-9.1 1.7 -2.5 1.8-4.1 4.7-4.8 8.8l-3.5 19.6 8.6 1.5c0.3 1.5 0.4 3 0.4 4.5 0 1.5-0.1 2.9-0.4 4.2 -0.2 1.3-0.6 2.7-1.1 4.2 -0.5 1.5-1.2 2.9-1.9 4.1l-41.1-7.4c-0.3-1.5-0.4-3-0.4-4.6 0-1.6 0.1-3 0.4-4.3 0.2-1.3 0.6-2.6 1.1-4.1 0.5-1.4 1.2-2.8 1.9-4.1L474 495.3z"/>
        <path class="st10" d="M529.9 503.9l11.8-34 -7-2.4c0-1.5 0.1-3 0.3-4.6 0.3-1.6 0.6-3 1-4.2s1-2.5 1.8-3.9c0.7-1.3 1.6-2.6 2.5-3.7l27.4 9.5 -1.4 6.9c2.7-1.8 5.9-2.9 9.6-3.4 3.7-0.5 8.1 0.2 13.2 1.9 3.8 1.3 6.9 3.2 9.5 5.7 2.5 2.5 4.2 5.4 5.1 8.8 3-1.9 6.3-3.1 9.9-3.5 3.7-0.4 8 0.2 13 2 2.9 1 5.5 2.4 7.7 4.2 2.2 1.8 3.9 3.8 5.1 6.2 1.2 2.4 2 5 2.1 7.9 0.2 2.9-0.3 6-1.5 9.4l-10.9 31.6 7 2.4c0 1.5-0.1 3-0.3 4.5 -0.2 1.5-0.6 2.9-1 4.1s-1 2.5-1.8 3.9c-0.8 1.4-1.6 2.7-2.6 3.8l-31.3-10.8 14.8-42.6c1.8-5.2 1-8.3-2.5-9.5 -0.9-0.3-1.9-0.5-2.9-0.7 -1-0.1-2.1 0.1-3.1 0.6 -1.1 0.5-2.1 1.5-3.1 2.8 -1 1.3-2 3.3-2.8 5.8l-7.8 22.6 4.3 1.5c0 1.5-0.1 3-0.3 4.5 -0.3 1.5-0.6 2.9-1 4.1 -0.4 1.2-1 2.5-1.8 3.9s-1.6 2.7-2.6 3.8l-28.6-9.9 14.8-42.6c1.8-5.2 1-8.3-2.5-9.5 -0.9-0.3-1.9-0.5-2.9-0.7 -1-0.1-2.1 0.1-3.1 0.6 -1.1 0.5-2.1 1.5-3.1 2.8 -1 1.3-2 3.3-2.8 5.8l-7.8 22.6 4.3 1.5c0 1.5-0.1 3-0.3 4.5 -0.2 1.5-0.6 2.9-1 4.1s-1 2.5-1.8 3.9c-0.8 1.4-1.6 2.7-2.6 3.8l-35.6-12.3c0-1.5 0.1-3 0.3-4.6 0.3-1.6 0.6-3 1-4.2 0.4-1.2 1-2.5 1.8-3.9 0.7-1.3 1.6-2.6 2.5-3.7L529.9 503.9z"/>
      </g>
    </g>
  </g>
</svg>
